<svg width="15" height="15" viewBox="0 0 40 40" fill="none" xmlns="http://www.w3.org/2000/svg">
<path id="Vector" d="M20 40C19.5178 40 19.0553 39.8084 18.7144 39.4675C18.3734 39.1265 18.1818 38.664 18.1818 38.1818V32.7273H10.9091C9.94467 32.7273 9.01974 32.3442 8.33779 31.6622C7.65584 30.9803 7.27273 30.0553 7.27273 29.0909V10.9091C7.27273 9.94467 7.65584 9.01974 8.33779 8.33779C9.01974 7.65584 9.94467 7.27273 10.9091 7.27273H36.3636C37.3281 7.27273 38.253 7.65584 38.9349 8.33779C39.6169 9.01974 40 9.94467 40 10.9091V29.0909C40 30.0553 39.6169 30.9803 38.9349 31.6622C38.253 32.3442 37.3281 32.7273 36.3636 32.7273H28.9091L22.1818 39.4727C21.8182 39.8 21.3818 40 20.9091 40H20ZM3.63636 25.4545H0V3.63636C0 2.67194 0.383116 1.74702 1.06507 1.06507C1.74702 0.383116 2.67194 0 3.63636 0H32.7273V3.63636H3.63636V25.4545Z" fill="#292929"/>
</svg>
