<svg width="25" height="25" viewBox="0 0 50 50" fill="none" xmlns="http://www.w3.org/2000/svg">
<g id="ion:filter">
<path id="Vector" d="M46.0938 16.4062H3.90625C3.28465 16.4062 2.68851 16.1593 2.24897 15.7198C1.80943 15.2802 1.5625 14.6841 1.5625 14.0625C1.5625 13.4409 1.80943 12.8448 2.24897 12.4052C2.68851 11.9657 3.28465 11.7188 3.90625 11.7188H46.0938C46.7154 11.7188 47.3115 11.9657 47.751 12.4052C48.1906 12.8448 48.4375 13.4409 48.4375 14.0625C48.4375 14.6841 48.1906 15.2802 47.751 15.7198C47.3115 16.1593 46.7154 16.4062 46.0938 16.4062ZM38.2812 27.3438H11.7188C11.0971 27.3438 10.501 27.0968 10.0615 26.6573C9.62193 26.2177 9.375 25.6216 9.375 25C9.375 24.3784 9.62193 23.7823 10.0615 23.3427C10.501 22.9032 11.0971 22.6562 11.7188 22.6562H38.2812C38.9029 22.6562 39.499 22.9032 39.9385 23.3427C40.3781 23.7823 40.625 24.3784 40.625 25C40.625 25.6216 40.3781 26.2177 39.9385 26.6573C39.499 27.0968 38.9029 27.3438 38.2812 27.3438ZM28.9062 38.2812H21.0938C20.4721 38.2812 19.876 38.0343 19.4365 37.5948C18.9969 37.1552 18.75 36.5591 18.75 35.9375C18.75 35.3159 18.9969 34.7198 19.4365 34.2802C19.876 33.8407 20.4721 33.5938 21.0938 33.5938H28.9062C29.5279 33.5938 30.124 33.8407 30.5635 34.2802C31.0031 34.7198 31.25 35.3159 31.25 35.9375C31.25 36.5591 31.0031 37.1552 30.5635 37.5948C30.124 38.0343 29.5279 38.2812 28.9062 38.2812Z" fill="#292929"/>
</g>
</svg>
