<svg width="20" height="20" viewBox="0 0 30 30" fill="none" xmlns="http://www.w3.org/2000/svg">
<g id="mdi:post-it-notes">
<path id="Vector" d="M20 11.25H26.875L20 4.375V11.25ZM8.75 2.5H21.25L28.75 10V22.5C28.75 23.163 28.4866 23.7989 28.0178 24.2678C27.5489 24.7366 26.913 25 26.25 25H8.75C8.08696 25 7.45107 24.7366 6.98223 24.2678C6.51339 23.7989 6.25 23.163 6.25 22.5V5C6.25 4.33696 6.51339 3.70107 6.98223 3.23223C7.45107 2.76339 8.08696 2.5 8.75 2.5ZM3.75 7.5V27.5H26.25V30H3.75C3.08696 30 2.45107 29.7366 1.98223 29.2678C1.51339 28.7989 1.25 28.163 1.25 27.5V7.5H3.75Z" fill="black"/>
</g>
</svg>
