<svg width="150" height="134" viewBox="0 0 150 134" fill="none" xmlns="http://www.w3.org/2000/svg">
<g clip-path="url(#clip0_175_1367)">
<path d="M7.31 29.0099C10.38 44.2699 14.31 59.6899 22.17 73.2699C29.35 85.6599 40.14 96.1499 53.84 100.94C61.15 103.5 69 104.3 76.59 102.57C78.59 102.11 80.67 104.32 79.41 106.24C74.17 114.21 70.24 122.92 67.75 132.13L64.67 129.05C85.69 123.77 106.77 118.7 127.89 113.84C133.86 112.47 139.83 111.11 145.8 109.78V114.6C131.47 112.18 117.59 106.95 105.2 99.3399C101.6 97.1299 98.15 94.6899 94.8 92.0999L98.73 91.5899C95.84 95.6299 92.95 99.6699 90.06 103.71C89.32 104.74 87.83 105.44 86.64 104.61C73.91 95.6999 60.89 86.5799 50.95 74.4799C45.85 68.2799 41.76 61.4599 38.85 53.9699C35.94 46.4799 34.24 38.2199 33.5 30.0599C32.67 20.8799 33.07 11.6299 34.22 2.49988L37.38 4.90988C25.38 8.98988 14.09 15.1999 4.24 23.1799C3.19 24.0299 1.73 24.1999 0.700002 23.1799C-0.179998 22.2999 -0.349998 20.4999 0.700002 19.6399C11.25 11.0799 23.18 4.45988 36.04 0.0798798C37.44 -0.400116 39.4 0.909882 39.2 2.48988C37.23 18.0599 37.41 34.2199 42.42 49.2299C44.83 56.4399 48.46 63.1899 53.09 69.2099C57.72 75.2299 62.99 80.2599 68.65 85.0099C75.18 90.4899 82.16 95.3999 89.14 100.29L85.72 101.19C88.61 97.1499 91.5 93.1099 94.39 89.0699C95.41 87.6399 96.96 87.5199 98.32 88.5599C112.51 99.5299 129.44 106.78 147.11 109.77C149.56 110.18 149.42 114.07 147.11 114.59C125.96 119.33 104.86 124.28 83.81 129.44C77.86 130.9 71.92 132.37 65.99 133.87C64.15 134.33 62.41 132.66 62.91 130.79C65.5 121.19 69.61 112.01 75.07 103.71L77.89 107.38C62.9 110.79 47.51 105.7 35.59 96.4899C22.77 86.5899 14.68 72.1999 9.43 57.1099C6.4 48.3799 4.27 39.3699 2.45 30.3299C2.18 29.0099 2.83 27.6299 4.2 27.2499C5.43 26.9099 7.01 27.6699 7.28 28.9999L7.31 29.0099Z" fill="#65D1E5"/>
<path d="M12.2401 23.3099C16.1101 16.3699 19.9901 9.41994 23.8601 2.47994C25.4401 -0.350052 29.5901 2.13993 28.1801 4.99993C20.3601 20.8199 15.1901 37.8899 12.8001 55.3699L7.98006 54.0399C13.0801 39.2699 20.0501 25.1799 28.7701 12.2099C30.1701 10.1199 33.2801 10.9499 33.4301 13.4699C34.3801 29.0499 26.3901 43.0999 23.8601 58.1299C23.1901 62.1299 22.9801 66.2999 23.5701 70.3199H18.7501C21.1401 59.5099 24.9501 49.0499 30.0001 39.2099C31.0801 37.0999 34.9401 37.9799 34.6601 40.4699C33.1201 53.9499 31.5801 67.4299 30.0401 80.9099L25.1301 80.2499C27.0801 71.1799 29.9301 62.3699 33.5501 53.8299C33.9701 52.8299 35.4101 52.4199 36.3701 52.6799C37.4801 52.9799 38.1301 53.9899 38.2101 55.0899C39.0401 66.9399 39.8701 78.7799 40.6901 90.6299L35.7801 89.9699C37.5601 80.2499 39.3501 70.5399 41.1301 60.8199C41.5601 58.4699 45.5901 58.3899 45.9501 60.8199C47.6701 72.2699 49.3801 83.7099 51.1001 95.1599H46.2801C47.3001 88.0899 48.3201 81.0199 49.3501 73.9499C49.5001 72.8799 50.7601 72.1099 51.7601 72.1099C52.8901 72.1099 53.8401 72.8899 54.1701 73.9499C56.4401 81.1099 57.9901 88.4399 58.9201 95.8899H53.9201C54.1501 90.7799 55.0301 85.7199 56.6101 80.8599C57.3701 78.5199 60.7001 78.4499 61.4301 80.8599C63.0701 86.2399 64.7001 91.6299 66.3401 97.0099L61.4301 97.6699C61.7101 94.9499 62.4101 92.4399 63.6101 89.9799C64.6201 87.9199 67.5401 88.6899 68.1801 90.5799C70.4201 97.2199 72.2601 103.98 73.7101 110.83L68.8001 111.49C69.3101 105.85 69.8201 100.22 70.3301 94.5799C70.6201 91.4099 75.2001 91.3199 75.3301 94.5799C75.5801 100.66 75.8301 106.74 76.0801 112.83C76.2001 115.78 76.22 118.76 76.4501 121.71C76.5001 122.38 76.7401 123.25 77.1201 123.96C77.1601 124.04 77.66 124.77 77.7101 124.7C77.7801 124.6 77.0901 124.45 76.9701 124.52L75.7301 126.68C75.0901 116.27 76.0801 105.79 78.6101 95.6799C79.2301 93.2099 82.7201 93.3999 83.4301 95.6799C86.3901 105.16 88.0901 115 88.5501 124.92L83.6401 124.26C86.9501 115.53 89.33 106.43 90.5601 97.1699C90.7201 95.9399 91.3801 94.8699 92.7301 94.7099C93.9901 94.5599 95.0901 95.2899 95.4701 96.4999C98.3201 105.44 101.18 114.38 104.03 123.32L99.1201 123.98C98.1701 114.09 98.0701 104.14 98.8201 94.2299C99.0401 91.3299 102.7 90.9399 103.73 93.5699C106.66 101.01 109.6 108.46 112.53 115.9L107.62 116.56C107.76 109.97 107.9 103.38 108.04 96.7899C108.09 94.3799 111.48 93.2899 112.7 95.5299C116.37 102.26 120.6 108.69 125.4 114.68L121.13 116.45C120.99 108.44 120.14 100.49 118.54 92.6399C118.29 91.4199 118.79 90.1699 119.99 89.6899C121.07 89.2499 122.55 89.5799 123.11 90.7099C126.94 98.4199 130.77 106.13 134.6 113.84L130.03 114.44C130.82 112.44 131.05 110.51 130.77 108.38C130.52 106.44 133.06 105.34 134.53 106.22C136.56 107.44 138.59 108.65 140.61 109.87C143.37 111.52 140.86 115.85 138.09 114.19C136.06 112.97 134.03 111.76 132.01 110.54L135.77 108.38C136.09 110.87 135.77 113.44 134.85 115.77C134.14 117.58 131.33 118.48 130.28 116.37C126.45 108.66 122.62 100.95 118.79 93.2399L123.36 91.3099C125.04 99.5899 125.98 108.01 126.13 116.45C126.17 118.46 123.26 119.96 121.86 118.22C116.79 111.89 112.26 105.18 108.38 98.0599L113.04 96.7999C112.9 103.39 112.76 109.98 112.62 116.57C112.59 117.8 111.69 118.88 110.45 119.03C109.13 119.19 108.18 118.43 107.71 117.24C104.78 109.8 101.84 102.35 98.9101 94.9099L103.82 94.2499C103.07 104.16 103.17 114.11 104.12 124C104.4 126.91 100.03 127.24 99.2101 124.66C96.3601 115.72 93.5001 106.78 90.6501 97.8399L95.5601 97.1799C94.26 106.91 91.9401 116.42 88.4601 125.6C87.48 128.19 83.6901 127.87 83.5501 124.94C83.1101 115.45 81.4301 106.09 78.6001 97.0299H83.4201C80.9901 106.74 80.1001 116.71 80.7201 126.7C80.7701 127.55 80.2101 128.45 79.4801 128.86C76.7301 130.4 73.98 128.82 72.6401 126.23C71.1401 123.32 71.3601 119.99 71.2301 116.81C70.9301 109.41 70.6201 102.02 70.3201 94.6199H75.3201C74.8101 100.26 74.3001 105.89 73.7901 111.53C73.6801 112.77 72.9301 113.83 71.6201 113.99C70.4601 114.13 69.1401 113.43 68.8801 112.2C67.4301 105.35 65.5801 98.5899 63.3501 91.9499L67.9201 92.5499C67.1301 94.1599 66.6001 95.9299 66.4201 97.7199C66.1401 100.43 62.3801 101.23 61.5101 98.3799C59.8701 92.9999 58.2401 87.6099 56.6001 82.2299H61.4201C59.9801 86.6799 59.1201 91.2499 58.9101 95.9299C58.8501 97.2799 57.8001 98.4299 56.4101 98.4299C54.9201 98.4299 54.0801 97.2799 53.9101 95.9299C53.0401 88.9399 51.4701 82.0399 49.3401 75.3199H54.1601C53.1401 82.3899 52.1201 89.4599 51.0901 96.5299C50.7401 98.9199 46.6301 98.9099 46.2701 96.5299C44.5501 85.0799 42.8401 73.6399 41.1201 62.1899H45.9401C44.1601 71.9099 42.3701 81.6199 40.5901 91.3399C40.3701 92.5499 38.9801 93.2999 37.8501 93.1299C36.5701 92.9399 35.7701 91.9499 35.6801 90.6699C34.8501 78.8199 34.0201 66.9799 33.2001 55.1299L37.8601 56.3899C34.4201 64.5199 31.8001 72.9899 29.9401 81.6099C29.3601 84.3199 24.7101 83.7699 25.0301 80.9499C26.5701 67.4699 28.1101 53.9899 29.6501 40.5099L34.3101 41.7699C29.4501 51.2399 25.8601 61.2999 23.5601 71.6899C23.0501 73.9799 19.1101 74.1599 18.7401 71.6899C16.3801 55.8199 24.1401 41.3999 27.3501 26.2699C28.2401 22.0699 28.6801 17.8099 28.4201 13.5099L33.0801 14.7699C24.6001 27.3899 17.7601 41.0399 12.7901 55.4099C12.3501 56.6899 11.0801 57.5299 9.71006 57.1599C8.27006 56.7599 7.78006 55.4299 7.96006 54.0799C10.4101 36.1499 15.8201 18.7299 23.8401 2.51994L28.1601 5.03994C24.2901 11.9799 20.4101 18.9299 16.5401 25.8699C14.9701 28.6799 10.6501 26.1599 12.2201 23.3499L12.2401 23.3099Z" fill="#65D1E5"/>
</g>
<defs>
<clipPath id="clip0_175_1367">
<rect width="149.08" height="133.96" fill="white" transform="matrix(1 0 0 -1 0 133.96)"/>
</clipPath>
</defs>
</svg>
