<svg width="62" height="116" viewBox="0 0 62 116" fill="none" xmlns="http://www.w3.org/2000/svg">
<g clip-path="url(#clip0_175_1521)">
<g clip-path="url(#clip1_175_1521)">
<path d="M15.62 14.6C18.12 10.84 21.24 7.44995 24.84 4.70995L21.17 3.21995C22.45 7.74995 22.67 12.41 22.82 17.08C22.97 21.75 23.23 26.8 23.7 31.65C24.65 41.38 26.28 51.05 28.62 60.55C29.77 65.19 31.2 69.76 32.14 74.44C32.36 75.54 32.56 76.64 32.69 77.76C32.76 78.31 32.81 78.86 32.85 79.41C32.87 79.66 32.78 80.1 32.9 80.3C32.88 80.57 32.93 80.54 33.07 80.21C33.31 79.68 33.79 79.46 34.51 79.55C34.51 79.53 33.86 78.93 33.69 78.66C32.98 77.55 32.41 76.33 31.79 75.17C27.14 66.66 22.42 58.17 17.94 49.57C13.01 40.1 8.42002 30.43 4.89002 20.34L4.64002 22.27C7.54002 17.66 11.61 14.02 16.44 11.53L12.77 8.70995C10.53 17.24 8.31002 25.96 8.76002 34.86C8.82002 36.1 9.66002 37.16 10.93 37.32C12.08 37.46 13.44 36.77 13.67 35.53C14.59 30.7 15.42 25.84 16.5 21.03C17.48 16.66 18.81 12.41 21.35 8.67995L16.69 7.41995C14.95 20.76 13.23 34.2 14.24 47.67C14.33 48.91 15.12 49.97 16.41 50.13C17.55 50.27 18.92 49.58 19.15 48.34C20.52 41.16 21.88 33.9799 23.25 26.8L18.34 26.14C19.28 38.01 19.66 49.92 19.49 61.83C19.45 64.79 23.47 65.04 24.4 62.49C25.91 58.36 27.43 54.22 28.94 50.09L24.03 49.43C24.38 55.54 24.74 61.66 25.09 67.77C25.17 69.1099 26.17 70.28 27.59 70.27C28.28 70.27 28.97 70.27 29.66 70.26L27.25 68.42C27.44 69.4399 27.63 70.45 27.82 71.47C28.07 72.8 29.67 73.55 30.9 73.22C32.29 72.84 32.9 71.4799 32.65 70.14C32.46 69.12 32.27 68.1099 32.08 67.09C31.89 66.07 30.7 65.25 29.67 65.25C28.98 65.25 28.29 65.25 27.6 65.26L30.1 67.76C29.75 61.65 29.39 55.53 29.04 49.42C28.87 46.54 25.1 46.1 24.13 48.76C22.62 52.89 21.1 57.03 19.59 61.16L24.5 61.82C24.67 49.91 24.29 38 23.35 26.13C23.25 24.89 22.47 23.83 21.18 23.67C20.04 23.53 18.67 24.22 18.44 25.46C17.07 32.6399 15.71 39.82 14.34 47L19.25 47.66C18.24 34.19 19.95 20.75 21.7 7.40995C21.84 6.33995 20.82 5.25995 19.86 4.99995C18.74 4.68995 17.66 5.22995 17.04 6.14995C14.36 10.08 12.84 14.67 11.78 19.28C10.65 24.21 9.81002 29.22 8.86002 34.19L13.77 34.85C13.35 26.37 15.47 18.16 17.6 10.03C18.17 7.83995 15.84 6.21995 13.93 7.20995C9.26002 9.60995 5.23002 13.06 2.06002 17.24C1.32002 18.21 0.200022 19.44 0.0400224 20.67C-0.149978 22.08 0.870022 23.9 1.36002 25.2C2.43002 28.04 3.58002 30.85 4.77002 33.64C9.39002 44.38 14.93 54.6899 20.53 64.95C23.47 70.34 26.23 75.9 29.39 81.17C30.62 83.22 33.05 85.2 35.56 84.24C38.67 83.06 37.9 79.18 37.55 76.62C36.74 70.7 34.88 65 33.45 59.22C32.02 53.44 30.83 47.46 29.92 41.5C28.92 34.89 28.28 28.23 27.98 21.55C27.68 14.87 27.79 8.27995 25.99 1.87995C25.6 0.479953 23.64 -0.620047 22.32 0.389953C18.01 3.67995 14.32 7.54995 11.31 12.07C9.52002 14.76 13.85 17.26 15.63 14.59L15.62 14.6Z" fill="#65D1E5"/>
<path d="M37.47 103.95C37.39 106.71 37.8 109.82 39.16 112.27C39.79 113.41 40.75 114.36 41.98 114.81C43.44 115.34 44.88 114.98 46.28 114.47C51.1 112.71 55.9 109.8 59.21 105.83C61.03 103.65 62.25 100.91 61.33 98.0599C60.53 95.5799 58.48 93.5599 56.3 92.2399C52.18 89.7499 46.87 89.5099 42.58 91.6899C38.29 93.8699 35.39 98.5899 35.06 103.4C34.89 105.92 35.49 108.6 37.14 110.57C38.93 112.71 41.74 113.3 44.39 112.78C49.16 111.84 54.31 107.41 54.54 102.33C54.66 99.6899 53.69 96.3199 51.47 94.7099C49.11 92.9999 45.92 93.6199 43.83 95.4499C41.74 97.2799 40.15 100.54 39.99 103.26C39.79 106.59 42.35 109.5 45.79 109.08C48.77 108.71 51.3 106.28 52.53 103.64C53.26 102.06 53.9 100.06 52.94 98.4299C52.03 96.8899 49.83 96.1799 48.3 97.2499C47.2 98.0199 46.68 99.4399 47.4 100.67C48.04 101.76 49.71 102.35 50.82 101.57L49.37 101.66L48.47 100.76C48.37 100.62 48.55 100.39 48.4 100.45C48.36 100.47 48.27 100.88 48.26 100.93C48.17 101.2 48.05 101.46 47.91 101.72C47.55 102.38 47.11 102.95 46.53 103.43C46.16 103.74 45.62 104.15 45.12 104.15C45.17 104.15 45.07 104.23 45.17 104.23C45.09 104.23 45.48 104.55 45.11 104.17C44.99 104.05 45.03 104.1 44.98 103.82C44.93 103.54 45.13 102.69 45.32 102.19C45.57 101.53 45.91 100.89 46.27 100.29C46.56 99.7999 46.91 99.2999 47.38 98.9799C47.74 98.7399 48.32 98.6099 48.45 98.6799C49.19 99.0699 49.57 100.99 49.55 101.94C49.53 103.29 48.78 104.35 47.84 105.27C46.32 106.76 42.93 109.11 41.06 107.5C39.38 106.05 39.95 102.55 40.72 100.73C41.76 98.2599 43.85 96.2499 46.37 95.5299C48.89 94.8099 51.61 95.2199 53.9 96.6399C54.89 97.2599 56.04 98.2199 56.5 99.3899C56.96 100.56 56.18 101.68 55.44 102.56C53.01 105.43 49.62 107.67 46.19 109.16C45.45 109.48 44.41 109.63 43.73 110.05C43.51 110.19 43.43 110.02 43.7 110.13C43.62 110.1 43.51 109.84 43.4 109.62C42.65 108.15 42.41 105.8 42.46 103.96C42.55 100.74 37.55 100.74 37.46 103.96L37.47 103.95Z" fill="#65D1E5"/>
</g>
</g>
<defs>
<clipPath id="clip0_175_1521">
<rect width="62" height="116" fill="white"/>
</clipPath>
<clipPath id="clip1_175_1521">
<rect width="61.64" height="115.07" fill="white"/>
</clipPath>
</defs>
</svg>
