<svg width="27" height="63" viewBox="0 0 27 63" fill="none" xmlns="http://www.w3.org/2000/svg">
<g clip-path="url(#clip0_175_1547)">
<g clip-path="url(#clip1_175_1547)">
<path d="M7.66998 6.32002C7.14998 9.05002 6.65998 11.9 7.42998 14.64C8.15998 17.23 9.90998 19.35 12.44 20.32C14.72 21.19 17.4 20.94 19.7 20.26C21.87 19.61 23.91 18.48 25.25 16.61C26.89 14.32 26.72 11.37 25.59 8.91002C24.58 6.71002 22.67 4.93002 20.86 3.38002C18.86 1.65002 16.68 0.260015 14 0.0300152C11.32 -0.199985 8.83998 0.880015 6.74998 2.28002C4.65998 3.68002 2.80998 5.50002 2.13998 7.94002C1.42998 10.5 2.28998 13.1 3.96998 15.08C7.41998 19.14 13.28 18.97 18.05 18.05C20.18 17.64 22.35 16.82 23.94 15.29C25.72 13.58 26.41 11.12 25.93 8.72002C24.93 3.72002 19.71 1.36002 15.05 2.48002C12.43 3.11002 9.75998 4.77002 8.42998 7.17002C6.94998 9.83002 7.46998 13.28 10.39 14.69C12.66 15.78 16.31 15.82 18.21 13.97C19.42 12.79 19.72 11.04 18.97 9.52002C18.22 8.00002 16.55 7.12002 14.92 7.67002C13.64 8.10002 12.8 9.39002 13.17 10.75C13.51 12 14.96 12.93 16.25 12.5C15.07 12.89 13.91 11.54 14.6 10.57C14.73 10.38 14.93 10.33 14.78 10.31C14.68 10.31 14.5 10.38 14.4 10.4C14.76 10.34 14.35 10.4 14.29 10.4C13.93 10.4 13.57 10.42 13.21 10.4C13.54 10.43 13.12 10.39 13.07 10.37C12.9 10.33 12.72 10.29 12.56 10.23C12.89 10.37 12.17 10.07 12.6 10.28C12.74 10.35 12.47 10.2 12.49 10.1C12.48 10.16 12.59 10.28 12.57 10.37C12.58 10.33 12.61 9.88002 12.55 10.26C12.56 10.17 12.74 9.68002 12.69 9.79002C13.06 8.95002 14.18 8.14001 15.23 7.68002C16.42 7.16002 17.62 7.03002 18.74 7.34002C18.78 7.35002 19.34 7.54002 19.13 7.46002C18.96 7.39002 19.34 7.57002 19.32 7.56002C19.47 7.64002 19.62 7.73002 19.76 7.82002C19.8 7.85002 20.11 8.12002 19.87 7.90002C20.01 8.02002 20.4 8.42002 20.38 8.40001C20.39 8.41002 20.7 8.90001 20.82 9.11001C21.02 9.47001 20.73 8.83002 20.88 9.21002C20.92 9.33002 20.96 9.45002 21 9.57001C21.05 9.73001 21.09 9.90002 21.12 10.06C21.1 9.92002 21.13 9.68002 21.12 10.14C21.12 10.31 21.12 10.47 21.11 10.64C21.11 10.59 21.16 10.29 21.11 10.59C21.11 10.64 20.96 11.13 21.05 10.89C21.11 10.71 20.84 11.28 20.84 11.29C20.71 11.53 20.35 11.88 20.14 12.01C19.88 12.17 19.62 12.33 19.35 12.47C18.94 12.68 19.12 12.6 18.59 12.77C17.31 13.19 15.96 13.42 14.62 13.54C13.01 13.69 11.36 13.72 9.80998 13.19C8.65998 12.8 7.80998 12.06 7.25998 11.13C6.76998 10.31 6.75998 9.47001 7.27998 8.57001C7.91998 7.49002 9.04998 6.69002 10.24 6.02002C11.43 5.35002 12.77 4.85002 13.98 5.05002C15.29 5.27002 16.44 6.13002 17.46 7.02002C18.59 8.01002 19.85 9.07001 20.67 10.32C21.04 10.88 21.31 11.4 21.44 12.06C21.5 12.35 21.52 12.48 21.49 12.82C21.46 13.28 21.55 12.63 21.45 13.09C21.43 13.17 21.22 13.71 21.35 13.43C21.29 13.55 21.22 13.66 21.15 13.77C21.05 13.91 21.06 13.92 21.15 13.79L20.98 13.99C20.86 14.12 20.73 14.24 20.6 14.36C20.55 14.41 20.28 14.6 20.48 14.46C19.75 14.97 19.37 15.14 18.62 15.38C18.02 15.57 17.13 15.79 16.68 15.84C15.88 15.93 15.08 15.92 14.47 15.75C13.21 15.42 12.54 14.49 12.2 13.19C11.77 11.57 12.13 9.52002 12.48 7.67002C12.73 6.34002 12.11 4.97002 10.73 4.59002C9.50998 4.25002 7.90998 5.00002 7.64998 6.34002L7.66998 6.32002Z" fill="#65D1E5"/>
<path d="M4.75998 32.75C8.37998 33.3 12.68 32.77 15.94 34.69C17.11 35.37 18.04 36.36 18.2 37.76C18.4 39.51 17.52 41.32 16.73 42.81C13.55 48.81 8.85998 55.8 1.85998 57.56L4.93998 60.64C6.81998 55.12 10.64 50.39 11.88 44.63C13.12 38.87 11.29 32.22 6.63998 28.09L4.86998 32.36C8.97998 32.09 11.82 35.73 10.5 39.65C9.75998 41.84 12.35 43.42 14.17 42.47C14.94 42.07 15.72 41.67 16.49 41.27L12.82 38.45C12.09 40.47 11.21 42.39 10.17 44.27C8.61998 47.09 12.93 49.62 14.49 46.79C15.73 44.54 16.77 42.19 17.64 39.78C18.43 37.59 15.76 36.03 13.97 36.96C13.2 37.36 12.42 37.76 11.65 38.16L15.32 40.98C17.63 34.12 12.11 26.88 4.86998 27.36C2.86998 27.49 1.36998 30.09 3.09998 31.63C6.91998 35.03 8.12998 39.99 6.65998 44.83C5.11998 49.91 1.82998 54.28 0.119979 59.32C-0.520021 61.19 1.44998 62.83 3.19998 62.4C9.99998 60.69 14.88 55.16 18.58 49.52C20.69 46.31 22.88 42.73 23.19 38.82C23.48 35.22 21.38 32.03 18.31 30.31C14.5 28.18 10.25 28.59 6.08998 27.96C4.75998 27.76 3.39998 28.3 3.00998 29.71C2.68998 30.89 3.40998 32.58 4.75998 32.79V32.75Z" fill="#65D1E5"/>
</g>
</g>
<defs>
<clipPath id="clip0_175_1547">
<rect width="27" height="63" fill="white"/>
</clipPath>
<clipPath id="clip1_175_1547">
<rect width="26.46" height="62.45" fill="white"/>
</clipPath>
</defs>
</svg>
