<svg width="171" height="156" viewBox="0 0 171 156" fill="none" xmlns="http://www.w3.org/2000/svg">
<g clip-path="url(#clip0_175_1657)">
<path d="M29.166 26.4905C17.1026 41.2746 4.0825 57.4339 1.19744 76.9117C-1.68762 96.3896 5.71188 113.55 18.3433 126.989C31.6774 141.175 50.4826 148.993 69.3924 152.297C88.3022 155.601 110.052 156.408 128.155 148.186C146.258 139.964 157.26 122.938 164.241 105.553C171.58 87.3159 173.509 66.3432 166.169 47.7771C159.816 31.7225 147.857 18.0745 132.774 9.62862C116.196 0.345612 96.509 -1.98635 77.9878 1.69098C68.6151 3.54459 59.4965 7.04253 51.2749 11.9157C42.3955 17.1776 34.2784 23.9194 26.7444 30.9452C23.1269 34.3235 19.8382 38.0905 17.865 42.6797C15.7722 47.5529 15.1294 52.8148 14.4268 58.0318C12.9021 69.288 11.9454 80.6189 11.6016 91.9798C11.4372 97.6154 11.4222 103.251 11.5567 108.887C11.6614 113.685 19.016 113.715 19.031 108.887C19.1057 88.7659 19.1805 68.6452 19.2552 48.5096L11.9155 49.4962C15.1444 72.3524 18.3732 95.1937 21.5872 118.05C21.8413 119.859 24.0537 120.965 25.6831 120.726C27.4619 120.457 28.9717 118.947 28.9269 117.048C28.3588 92.1891 27.7908 67.3447 27.2227 42.4854C27.1181 37.6869 19.7934 37.657 19.7485 42.4854C19.5243 69.4674 22.6784 96.4494 29.0913 122.654C30.0779 126.675 36.73 125.928 36.431 121.667C34.4429 92.7123 32.4697 63.7421 30.4815 34.7869L23.1418 35.7735C26.8042 62.8153 30.4516 89.8571 34.114 116.899L37.2083 139.755C37.4475 141.564 39.6898 142.67 41.3042 142.431C43.2475 142.132 44.3687 140.667 44.548 138.754C47.0145 113.042 45.6692 87.1963 43.4418 61.5148C42.7991 54.1601 42.0965 46.8204 41.379 39.4807L34.0393 40.4673C38.2099 71.1865 42.3656 101.921 46.5661 132.64C47.4929 139.396 49.0774 146.019 54.8326 150.264C57.0599 151.908 60.6625 149.711 60.4532 147.035C57.9718 115.374 55.5053 83.7133 53.0238 52.0524C52.3212 43.1431 51.6336 34.2488 50.931 25.3395H43.4568C47.8517 58.555 53.278 91.621 59.7656 124.493C61.5893 133.731 63.5027 142.969 65.4909 152.177C66.3728 156.243 73.1594 155.421 72.8306 151.191C70.1996 116.63 66.328 82.1736 61.2455 47.8967C59.8104 38.1952 58.2707 28.5086 56.6414 18.8369L49.4362 20.825C58.9733 52.7251 60.2589 86.2396 67.3295 118.648C69.3027 127.707 71.7692 136.676 74.9383 145.391C76.6125 149.98 82.846 148.126 82.1435 143.403C77.0012 109.186 72.6811 74.8339 69.1682 40.4075C68.1666 30.6163 67.2398 20.825 66.3728 11.0188L59.0331 12.0054C65.0723 46.1179 71.1115 80.2303 77.1507 114.343L82.278 143.328C83.0254 147.513 89.7223 146.497 89.6177 142.341C88.8254 108.094 84.1316 74.1014 78.6156 40.3328C77.061 30.8704 75.4465 21.423 73.8321 11.9755L66.6269 13.9637C76.194 46.0581 78.8548 79.737 88.362 111.846C91.0827 121.025 94.4012 130.009 98.4523 138.664C100.067 142.132 105.433 140.278 105.418 136.78C105.358 120.875 102.085 105.134 99.409 89.5133C96.7332 73.8921 94.0425 58.2859 91.3667 42.6797C89.8419 33.7704 88.3172 24.8761 86.7775 15.9668C86.4337 13.9786 83.9821 12.8575 82.1734 13.3508C80.0656 13.9338 79.2285 15.9518 79.5574 17.9549C84.6548 48.6143 91.1724 79.0195 99.0951 109.066C101.322 117.512 103.669 125.943 106.121 134.329C106.644 136.108 108.393 137.289 110.217 137.005C111.876 136.751 113.685 135.196 113.461 133.327C111.472 116.615 109.484 99.9025 107.511 83.1901C105.538 66.4777 104.028 50.139 101.367 33.7854C99.9471 25.0704 97.9291 16.4601 94.6105 8.25336C93.2053 4.80026 88.7656 4.65077 87.4053 8.25336C85.761 12.6034 86.3141 17.2673 87.1213 21.7369C87.9285 26.2065 88.8703 30.7807 89.7672 35.2952C91.6507 44.8024 93.6239 54.2947 95.642 63.772C99.678 82.6071 103.998 101.367 108.587 120.083C111.158 130.562 113.834 141.026 116.585 151.46L123.416 148.575C116.435 136.661 108.931 125.061 100.949 113.79C98.7662 110.71 94.2966 111.876 93.9827 115.673C93.2502 124.747 93.0559 133.85 93.4146 142.954L100.754 141.968C99.0353 132.894 96.0605 124.149 92.0244 115.838C90.3053 112.295 85.2229 114.298 85.0584 117.721C84.7595 123.745 85.5218 129.904 87.3754 135.659C88.2873 138.47 89.4383 141.235 90.8136 143.851C92.1889 146.467 94.2816 148.948 97.4657 148.978C104.103 149.023 104.88 139.979 106.106 135.241C107.795 128.723 109.484 122.221 111.173 115.703L104.342 116.6C108.273 124.254 112.205 131.907 116.136 139.561C117.796 142.79 123.371 141.355 123.102 137.677C121.817 120.621 119.53 103.64 116.181 86.8674C114.522 78.5262 112.594 70.2298 110.426 62.0081C108.258 53.7864 105.642 45.8189 103.52 37.657C101.233 28.8823 99.6631 19.674 101.532 10.675H94.3265C100.635 25.9075 102.907 42.59 106.001 58.6746C109.26 75.5514 112.519 92.4283 115.778 109.305C117.631 118.902 119.485 128.484 121.338 138.081C121.757 140.278 124.971 141.713 126.824 140.308C134.045 134.912 132.296 125.674 131.324 117.871C130.128 108.184 128.753 98.5272 127.183 88.9004C124.044 69.587 120.143 50.3931 115.494 31.3936C114.402 26.939 112.743 22.1106 112.19 17.7307C112.011 16.2508 111.981 14.3374 112.235 13.2312C112.459 12.3044 112.489 12.1101 112.952 11.4673C112.683 11.841 113.072 11.3477 113.117 11.3178C113.311 11.1384 113.565 10.9889 113.55 10.9889L108.946 8.37295C113.61 41.2297 119.261 73.9519 125.898 106.48C127.781 115.718 129.754 124.941 131.802 134.149C132.744 138.365 139.037 137.274 139.142 133.163C139.919 103.356 137.572 73.4885 132.206 44.1596C130.681 35.8483 128.902 27.5668 126.899 19.3601L119.694 21.3482C126.032 45.4601 132.355 69.572 138.694 93.6839L144.075 114.193C145.181 118.394 151.205 117.317 151.415 113.207C152.73 87.9437 147.693 62.8751 141.295 38.5689C139.456 31.6029 137.513 24.6668 135.554 17.7307C134.254 13.0817 127.273 15.04 128.349 19.7188C134.06 44.6679 139.605 69.6767 145.495 94.5808C147.05 101.113 148.933 107.556 152.087 113.521C153.777 116.72 159.308 115.344 159.053 111.637C157.005 82.637 152.566 53.8163 145.779 25.5637C144.658 20.8848 137.483 22.873 138.574 27.5518C143.612 49.2421 148.709 71.022 157.005 91.7556C157.693 93.4746 159.128 94.7303 161.101 94.4314C162.776 94.1772 164.539 92.6375 164.345 90.754C162.312 71.6947 158.919 52.8148 154.12 34.2637C152.91 29.5998 145.764 31.573 146.915 36.2519C149.442 46.4916 153.792 56.2529 159.726 64.9679C160.862 66.6272 163.015 67.3746 164.838 66.3133C166.483 65.3416 167.32 62.8751 166.184 61.2009C160.563 52.9792 156.512 43.9354 154.12 34.2637L146.915 36.2519C151.549 54.1601 154.913 72.3674 156.871 90.754L164.211 89.7674C155.914 69.0339 150.817 47.2539 145.779 25.5637L138.574 27.5518C145.211 55.1766 149.576 83.2947 151.594 111.637L158.56 109.754C155.929 104.776 154.375 99.3643 153.044 93.9081C151.594 87.9288 150.279 81.9045 148.903 75.9102C146.078 63.5478 143.238 51.1854 140.413 38.823C138.798 31.7972 137.199 24.7714 135.584 17.7307L128.379 19.7188C135.061 43.4421 141.863 67.4344 143.701 92.1293C144.225 99.1551 144.329 106.181 143.955 113.222L151.295 112.235C144.957 88.1231 138.634 64.0112 132.296 39.8993C130.502 33.0678 128.708 26.2214 126.914 19.39C125.688 14.741 118.558 16.6992 119.709 21.3781C126.675 49.8251 130.681 78.9148 131.623 108.184C131.892 116.51 131.907 124.852 131.683 133.193L139.022 132.206C131.832 99.7979 125.599 67.1803 120.382 34.4132C118.902 25.1003 117.497 15.7724 116.166 6.42964C115.897 4.56108 113.281 3.15593 111.562 3.81366C104.058 6.77346 103.834 15.1895 105.388 22.006C107.571 31.4833 110.112 40.8709 112.205 50.3632C116.465 69.7066 119.948 89.2293 122.654 108.857C123.371 114.119 124.134 119.41 124.627 124.687C124.881 127.303 125.449 132.087 123.028 133.895L128.514 136.123C122.011 102.414 115.793 68.6452 108.976 34.9962C107.167 26.057 105.015 17.1627 101.517 8.70181C100.874 7.14717 99.7079 5.95129 97.9141 5.95129C96.3445 5.95129 94.6404 7.10233 94.3115 8.70181C90.7538 25.8477 97.2414 42.5153 101.786 58.8091C106.33 75.103 109.948 92.0994 112.459 109.051C113.864 118.558 114.896 128.11 115.613 137.692L122.579 135.809C118.648 128.155 114.716 120.502 110.785 112.848C109.305 109.963 104.731 110.725 103.953 113.745C102.638 118.812 101.322 123.88 100.022 128.932C99.3342 131.578 98.6466 134.239 97.959 136.885C97.645 138.096 97.361 139.307 97.0172 140.503C96.9425 140.757 96.778 141.16 96.7481 141.429C96.6883 142.117 96.2847 141.579 96.8528 141.698C96.9574 141.713 98.2131 141.519 98.1832 141.624C98.1981 141.549 97.7945 141.056 97.7048 140.891C97.1069 139.875 96.5986 138.783 96.1053 137.707C95.2084 135.689 94.5059 133.581 93.9378 131.459C92.727 126.959 92.3084 122.385 92.5327 117.736L85.5667 119.62C89.3187 127.348 91.9347 135.54 93.5342 143.971C94.3265 148.111 101.038 147.155 100.874 142.984C100.515 133.88 100.695 124.777 101.442 115.703L94.476 117.587C102.458 128.858 109.963 140.458 116.944 152.372C119.096 156.034 124.851 153.612 123.775 149.487C114.178 113.072 105.642 76.3736 98.1832 39.4658C97.1368 34.2936 96.1203 29.1214 95.1188 23.9493C94.2517 19.4647 92.9213 14.7261 94.6105 10.2714H87.4053C93.2502 24.6967 94.9244 40.2431 96.7481 55.5653C98.7213 72.1581 100.695 88.7509 102.653 105.344C103.759 114.687 104.865 124.029 105.986 133.357L113.326 132.371C104.611 102.548 97.2863 72.3076 91.3966 41.7978C89.7373 33.2173 88.1976 24.607 86.7626 15.9967L79.5574 17.9848C84.8641 48.9282 90.4698 79.8416 95.4626 110.83C96.8528 119.425 97.8992 128.08 97.9291 136.81L104.895 134.927C90.8285 104.821 87.226 71.2762 80.529 39.0921C78.6306 29.9884 76.4929 20.9297 73.8321 12.0054C72.427 7.3116 65.8197 9.32965 66.6269 13.9936C72.2924 47.0746 77.9579 80.2153 80.6486 113.7C81.411 123.237 81.9342 132.804 82.1584 142.371L89.4981 141.385C83.4589 107.272 77.4198 73.1597 71.3806 39.0472C69.6764 29.3905 67.9574 19.7338 66.2532 10.0621C65.5208 5.95129 58.5398 6.8482 58.9135 11.0487C62.0228 46.0581 65.9692 81.0076 70.7228 115.838C72.0682 125.719 73.4883 135.57 74.9682 145.436L82.1734 143.447C70.7976 112.115 69.0785 78.5561 63.0692 46.0282C61.38 36.8797 59.3321 27.791 56.6713 18.8817C56.0883 16.9534 54.0553 15.7276 52.0671 16.2657C49.9594 16.8487 49.1223 18.8668 49.4511 20.8699C55.1166 54.504 59.6012 88.3324 62.8749 122.295C63.8017 131.937 64.6388 141.579 65.3713 151.236L72.711 150.249C65.73 117.945 59.7506 85.4324 54.8176 52.755C53.4424 43.6514 52.1419 34.5328 50.931 25.3993C50.662 23.3962 49.4063 21.6621 47.1939 21.6621C45.2955 21.6621 43.2924 23.3812 43.4568 25.3993C45.9382 57.0602 48.4047 88.721 50.8862 120.382C51.5888 129.291 52.2764 138.186 52.979 147.095L58.5996 143.866C54.713 141.011 54.3094 134.688 53.7115 130.338C52.695 122.938 51.6934 115.539 50.6919 108.124C48.6738 93.3252 46.6707 78.5112 44.6527 63.7122C43.5166 55.3261 42.3656 46.9251 41.2295 38.539C40.6614 34.4132 33.4862 35.34 33.8898 39.5256C36.3712 65.1921 38.8676 90.9483 38.3295 116.764C38.18 124.119 37.7614 131.474 37.0588 138.798L44.3986 137.812C40.7362 110.77 37.0887 83.7282 33.4264 56.6864L30.332 33.8302C29.764 29.6745 22.7083 30.6312 22.9923 34.8168C24.9805 63.772 26.9537 92.7422 28.9418 121.697L36.2815 120.711C30.0181 95.119 26.9836 68.8695 27.2078 42.5302H19.7336C20.3016 67.3895 20.8696 92.2339 21.4377 117.093L28.7774 116.107C25.5485 93.2504 22.3196 70.4091 19.1057 47.5529C18.8516 45.7442 16.6392 44.638 15.0098 44.8771C13.1861 45.1462 11.781 46.656 11.766 48.5545C11.6913 68.6751 11.6165 88.7958 11.5418 108.931H19.016C18.7769 98.1535 19.0609 87.3607 19.898 76.6128C20.3016 71.3658 20.8547 66.1189 21.5124 60.887C22.1104 56.1782 22.6485 51.3199 24.2181 46.8204C25.6831 42.5751 28.7923 39.2715 32.0063 36.2668C35.564 32.9482 39.2862 29.7642 43.098 26.7297C50.1537 21.0792 57.897 16.1163 66.3579 12.8575C82.7863 6.53428 101.218 5.60748 117.99 11.2281C132.819 16.2059 145.734 26.6549 153.926 39.9591C163.06 54.773 165.302 72.203 161.55 89.1097C157.798 106.016 148.963 123.641 135.39 134.942C121.249 146.721 101.98 148.007 84.3857 146.706C66.2383 145.376 47.8517 140.652 32.9032 129.934C19.9877 120.681 9.73302 105.747 8.22323 89.6777C6.53405 71.6648 15.9815 55.6998 26.4604 41.8575C29.0465 38.4493 31.7521 35.1158 34.4578 31.8122C35.7284 30.2426 35.9826 28.0601 34.4578 26.5204C33.1423 25.2049 30.4516 24.9508 29.166 26.5204V26.4905Z" fill="#65D1E5"/>
<path d="M44.4733 114.507C54.8475 125.808 70.0651 132.864 85.477 132.804C102.443 132.744 117.287 122.953 128.05 110.396C134.149 103.281 138.753 92.2788 132.296 83.803C131.279 82.4576 129.814 81.6056 128.08 82.0839C126.526 82.5174 125.3 84.0571 125.33 85.6865C125.569 97.4211 117.541 107.661 107.481 112.953C95.3878 119.321 80.4244 119.291 67.2697 116.899C60.3187 115.643 53.3078 113.461 48.1656 108.393C44.7424 105.015 39.4506 110.292 42.8738 113.685C48.1805 118.917 55.1465 121.892 62.3218 123.521C69.8857 125.24 77.8532 126.003 85.6115 125.733C100.844 125.195 115.867 119.829 125.36 107.407C130.113 101.188 132.953 93.5793 132.804 85.7014L125.838 87.585C130.263 93.3999 126.735 100.53 122.549 105.359C117.721 110.92 112.025 116.017 105.657 119.739C93.9229 126.6 80.0806 126.825 67.6135 121.757C60.797 118.992 54.698 114.627 49.7501 109.215C46.4913 105.658 41.2145 110.964 44.4583 114.507H44.4733Z" fill="white"/>
<path d="M59.1527 58.8839C59.8403 62.2324 61.4697 65.237 63.697 67.8082C65.6403 70.0504 69.1233 68.6453 69.9455 66.1638C71.0666 62.7855 70.3491 59.0633 69.3775 55.7298C68.4058 52.3963 67.0306 49.287 65.2218 46.4169C63.9213 44.354 61.7836 42.7246 59.1976 43.5767C57.0898 44.2643 55.6847 46.0432 55.2811 48.2107C54.6383 51.6339 54.6084 55.2066 55.0269 58.6447C55.4455 62.0829 56.2527 65.835 57.8372 69.1087C59.5563 72.6515 63.5924 74.7741 67.3445 73.0551C70.5435 71.5901 71.3656 67.7932 71.2909 64.6092C71.2161 61.4252 70.663 58.1963 69.5718 55.1916C68.2862 51.6339 66.4326 48.3452 63.9512 45.4901C61.9481 43.188 58.3754 43.3524 56.8506 46.1478C55.6847 48.2854 55.8939 51.1257 56.3424 53.4277C56.7161 55.3561 59.1228 56.6267 60.9465 56.0437C62.9945 55.386 63.9661 53.5025 63.5625 51.4396C63.5326 51.32 63.4728 50.8117 63.5177 51.2004C63.4878 50.8566 63.4878 50.5128 63.4878 50.1689C63.4878 50.0793 63.5476 49.4215 63.5177 49.6308C63.5027 49.7803 63.5177 49.7504 63.5476 49.5112C63.6821 48.9731 63.5326 49.2122 63.0842 50.2437L60.4383 51.3349L60.6924 51.305L58.8089 50.7968C58.1362 50.438 58.4352 50.453 58.6594 50.7669C58.8089 50.9612 58.9883 51.1556 59.1378 51.3499C58.779 50.9014 59.6012 52.0076 59.6759 52.0973C60.2439 52.9195 60.7671 53.7715 61.2305 54.6535C61.4697 55.1019 61.679 55.5504 61.9032 55.9989C61.9331 56.0736 62.2022 56.6566 61.978 56.1334C62.0826 56.3576 62.1723 56.5968 62.247 56.836C62.6058 57.7628 62.9048 58.7195 63.144 59.6911C63.2635 60.1695 63.3831 60.6628 63.4728 61.1561C63.5177 61.3953 63.5625 61.6494 63.6074 61.8886C63.6223 61.9932 63.712 62.621 63.6373 62.0081C63.7718 62.9947 63.8316 63.9963 63.8316 64.9978C63.8316 65.4313 63.8166 65.8499 63.7867 66.2685C63.8316 65.4911 63.697 66.3283 63.6671 66.6123C63.6223 67.1355 63.9213 66.0741 63.7269 66.5375C63.6373 66.7468 63.2785 66.971 63.6373 66.7468C63.697 66.702 64.3697 66.1788 63.9661 66.4179C63.6671 66.5973 64.4744 66.2685 64.5491 66.2386C65.0723 66.0891 64.7434 66.5973 64.6089 66.1937L64.7584 66.2535C65.0125 66.3582 64.9677 66.3133 64.6388 66.1339L64.7733 66.2236C64.9976 66.388 64.9527 66.3283 64.6687 66.0592C64.6986 66.119 64.9677 66.4777 64.7285 66.119C64.6089 65.9246 64.4893 65.7154 64.3847 65.5061C64.3398 65.4164 64.0558 64.7587 64.2053 65.1473C64.3548 65.536 64.0857 64.8035 64.0708 64.7437C63.9512 64.4149 63.8465 64.086 63.7269 63.7571C63.413 62.7705 63.129 61.769 62.9048 60.7525C62.7852 60.2143 62.6805 59.6612 62.5759 59.1231C62.546 58.9138 62.5012 58.7195 62.4713 58.5102C62.2769 57.2097 62.5161 59.1679 62.3965 57.8525C62.1872 55.6401 62.1574 53.4128 62.3666 51.2004C62.3965 50.9313 62.4264 50.6473 62.4563 50.3782C62.3965 50.737 62.4563 50.453 62.4563 50.3782C62.4862 50.1689 62.5759 49.9597 62.5759 49.7504L62.6208 49.6009C62.546 49.87 62.3816 50.0942 62.1275 50.2437L61.7836 50.5726C58.9733 49.1674 57.9269 49.003 58.6594 50.0494C58.7491 50.2287 58.8836 50.3932 58.9733 50.5576C59.3171 51.1256 59.661 51.7086 59.9749 52.3066C61.0512 54.3246 61.679 55.9092 62.3367 58.3159C62.5012 58.8989 62.6357 59.4818 62.7702 60.0798C62.83 60.3339 62.8749 60.588 62.9197 60.8422L62.9795 61.2308C62.9496 60.9468 62.9496 60.9319 62.9795 61.2009C63.0393 61.7839 63.0393 62.352 63.0393 62.935C63.0393 63.0396 62.9347 63.6525 63.0393 63.0844C62.9646 63.4581 62.8599 63.8319 62.7403 64.1906L68.9888 62.5463C68.9888 62.5463 68.3909 61.8138 68.5703 62.053C68.7795 62.337 68.2563 61.5896 68.2115 61.5148C67.8677 60.9916 67.5687 60.4535 67.2847 59.9004C67.195 59.721 67.0455 59.4071 67.2099 59.7659C67.0904 59.4818 66.9857 59.1829 66.8811 58.8839C66.6568 58.2262 66.4924 57.5684 66.3579 56.8958C65.9692 54.9824 63.5924 53.6968 61.7537 54.2798C59.7207 54.9375 58.7192 56.821 59.1378 58.8839H59.1527Z" fill="white"/>
<path d="M96.793 49.9746C97.4358 52.172 98.1533 54.3246 98.9605 56.4622C99.9023 58.9287 100.829 61.9035 103.759 62.5911C109.32 63.8916 112.429 57.7029 112.31 53.0988C112.19 48.9132 110.77 44.5931 108.886 40.9008C107.003 37.2086 101.935 30.0034 97.1816 34.4431C95.3579 36.1472 95.4476 39.3911 95.2832 41.6782C95.1187 43.9653 95.1188 46.2823 95.2981 48.5694C95.4925 51.0359 95.8363 53.5174 96.3595 55.939C96.8229 58.0617 97.376 60.1844 98.7363 61.9334C100.276 63.9365 102.772 65.0576 105.284 64.3251C107.795 63.5926 109.275 61.4102 110.187 59.0931C111.756 55.072 111.786 50.5576 110.845 46.372C110.336 44.0699 109.439 41.8277 108.348 39.7498C107.257 37.672 105.897 35.1905 103.834 34.0694C100.5 32.2606 96.5688 34.6673 95.8512 38.1952C95.2832 41.0055 95.7914 44.1297 96.3894 46.8952C96.8079 48.8086 99.1399 50.1091 100.994 49.5112C103.012 48.8534 104.043 46.9699 103.609 44.907C103.281 43.3823 103.116 42.2612 103.116 40.557C103.116 40.4524 103.146 39.7797 103.131 39.7648C103.296 39.8545 102.832 40.3328 102.802 40.3627C101.995 41.1101 100.769 40.9606 99.8425 40.288C100.126 40.6019 100.141 40.6019 99.8873 40.273C100.037 40.4823 100.186 40.6916 100.321 40.8859C101.038 41.9323 101.681 43.0385 102.234 44.1895C102.189 44.0849 102.713 45.2359 102.518 44.7875C102.324 44.339 102.802 45.5199 102.757 45.4153C103.026 46.1328 103.251 46.8653 103.445 47.5978C103.609 48.2107 103.729 48.8385 103.849 49.4514C104.073 50.6174 103.834 48.7787 103.908 49.9596C103.923 50.2138 103.953 50.4529 103.968 50.7071C103.998 51.3349 104.013 51.9627 103.968 52.5906C103.953 52.9643 103.923 53.338 103.879 53.7117C103.953 53.0091 103.804 54.1602 103.789 54.205C103.669 54.8179 103.52 55.4308 103.325 56.0287C103.206 56.3875 103.101 56.7612 102.937 57.0901C103.251 56.3875 102.922 57.0452 102.817 57.2096C102.653 57.4787 102.249 57.7328 102.742 57.3442C102.085 57.8524 103.012 57.1797 103.116 57.1498C103.37 57.0602 103.699 57.0452 103.953 57.0901C104.222 57.1349 104.462 57.2545 104.656 57.4638C104.417 57.2096 104.387 57.1797 104.566 57.389C104.626 57.8076 104.432 57.1199 104.357 56.9854C103.864 56.1931 104.476 57.5983 104.237 56.7014C104.073 56.0736 103.879 55.4457 103.729 54.8179C103.4 53.4127 103.056 51.6339 102.922 50.5576C102.548 47.4632 102.488 44.339 102.742 41.2297C102.772 40.7813 102.817 40.3478 102.877 39.8993C102.967 39.107 102.937 39.3911 102.907 39.5704L102.967 39.1369C103.311 37.6122 102.1 38.0008 99.3342 40.3029C99.1997 39.9591 99.1698 40.1235 99.394 40.3478C99.7827 40.7364 100.47 41.5436 100.62 41.7529C100.814 42.007 101.427 42.9488 101.726 43.4869C103.116 45.8787 103.804 47.8967 104.462 50.8266C104.521 51.0658 104.566 51.305 104.611 51.5442C104.656 51.7684 104.701 51.9926 104.731 52.2168C104.686 51.7983 104.671 51.8132 104.731 52.2617C104.775 52.9493 104.79 53.637 104.761 54.3246C104.761 54.1602 104.925 53.622 104.761 54.3246C104.716 54.5339 104.237 55.6849 104.626 54.9674C104.521 55.1617 104.417 55.3411 104.312 55.5205C104.581 55.1916 104.566 55.1916 104.282 55.5205C104.611 55.3112 104.581 55.3261 104.192 55.5653C105.314 55.2813 105.747 54.9225 106.928 56.3725C106.734 55.9839 106.704 55.9839 106.868 56.3725C106.764 56.1035 106.644 55.8194 106.539 55.5504C106.24 54.8029 105.956 54.0406 105.687 53.2782C105.059 51.5442 104.491 49.7952 103.983 48.0313C103.43 46.1627 101.322 44.7875 99.3791 45.4153C97.4358 46.0431 96.1801 48.0014 96.7631 50.0194L96.793 49.9746Z" fill="white"/>
</g>
<defs>
<clipPath id="clip0_175_1657">
<rect width="170.174" height="155.584" fill="white" transform="translate(0.629395 0.0317383)"/>
</clipPath>
</defs>
</svg>
