<svg width="65" height="78" viewBox="0 0 65 78" fill="none" xmlns="http://www.w3.org/2000/svg">
<g clip-path="url(#clip0_175_1511)">
<g clip-path="url(#clip1_175_1511)">
<path d="M38.3999 47.78C26.4499 41.89 14.8499 35.29 3.67994 28.03L2.41994 32.69C10.7499 32.99 19.1399 32.14 27.2399 30.18C35.3399 28.22 42.7599 24.96 50.1899 21.33C54.2599 19.34 58.3699 17.46 62.7799 16.34L59.6199 13.93C59.4299 18.23 56.2099 22.09 53.8199 25.44C51.0399 29.32 48.0699 33.05 45.0399 36.75C38.7099 44.48 32.3299 52.17 25.9799 59.87C22.3099 64.32 18.6399 68.7701 14.9699 73.22L19.2399 74.99C20.6299 56.21 22.0199 37.43 23.4099 18.65C23.8099 13.27 24.2099 7.89005 24.6099 2.52005L22.1099 5.02005C21.8799 4.99005 21.9299 4.91005 21.9999 5.06005C22.0699 5.20005 22.2799 5.40005 22.4199 5.64005C22.7599 6.25005 22.9399 6.91005 23.1099 7.59005C23.6499 9.69005 24.1699 11.79 24.7399 13.88C25.8899 18.03 27.1699 22.15 28.5699 26.22C31.4299 34.49 34.7999 42.59 38.6699 50.44C40.8699 54.92 43.2399 59.3101 45.7499 63.6101L49.6799 60.5801C41.2499 52.3601 32.8199 44.1501 24.3899 35.93C22.0799 33.68 18.5499 37.2101 20.8499 39.4701C29.2799 47.6901 37.7099 55.9 46.1399 64.12C48.1599 66.09 51.5199 63.5801 50.0699 61.09C40.8299 45.28 33.7299 28.29 29.0299 10.59C27.9099 6.41005 27.3399 0.670048 22.0899 0.010048C20.6799 -0.169952 19.6799 1.30005 19.5899 2.51005C18.1999 21.29 16.8099 40.07 15.4199 58.85C15.0199 64.23 14.6199 69.61 14.2199 74.98C14.0699 77.0601 17.1299 78.4 18.4899 76.75C25.1499 68.68 31.8099 60.6 38.4699 52.53C45.1299 44.46 51.7099 36.84 57.7099 28.54C60.8699 24.17 64.3699 19.52 64.6099 13.93C64.6799 12.27 62.9599 11.14 61.4499 11.52C53.5899 13.52 46.6699 17.85 39.2599 20.98C31.8499 24.11 24.0899 26.19 16.1799 27.13C11.6099 27.67 7.00994 27.85 2.41994 27.69C-0.180058 27.6 -0.820058 31.06 1.15994 32.35C12.3299 39.61 23.9299 46.21 35.8799 52.1C37.0899 52.7 38.5899 52.43 39.2999 51.2001C39.9499 50.1001 39.6199 48.38 38.3999 47.78Z" fill="#65D1E5"/>
</g>
</g>
<defs>
<clipPath id="clip0_175_1511">
<rect width="65" height="78" fill="white"/>
</clipPath>
<clipPath id="clip1_175_1511">
<rect width="64.62" height="77.5" fill="white"/>
</clipPath>
</defs>
</svg>
