<svg width="94" height="120" viewBox="0 0 94 120" fill="none" xmlns="http://www.w3.org/2000/svg">
<g clip-path="url(#clip0_175_1535)">
<g clip-path="url(#clip1_175_1535)">
<path d="M23.64 63.9501C30.87 71.6301 40.65 75.9501 48.6 82.7301C54.99 88.1701 61.04 96.1401 58.67 104.9C57.73 108.37 55.64 111.63 52.47 113.33C48.72 115.34 44.31 114.03 40.77 111.79C36.44 109.05 32.79 105.08 29.55 101.16C26.13 97.0201 23.16 92.5001 20.49 87.8501C15.06 78.3901 10.95 68.2201 8.27002 57.6401C6.95002 52.4401 5.92002 47.1401 5.37002 41.8101C4.82002 36.4801 4.74002 30.9101 5.98002 25.6201C7.93002 17.3201 13.96 8.82011 22.99 7.58011C27.83 6.91011 32.57 8.72011 36.64 11.2001C40.71 13.6801 44.69 17.1401 48.21 20.6401C55.01 27.4101 60.65 35.2801 64.97 43.8501C69.29 52.4201 72.42 61.7301 73.49 70.9701C73.93 74.7501 73.88 78.7501 72.48 82.3201C71.91 83.7501 71.04 85.1501 69.74 86.1601C68.38 87.2201 66.37 87.6901 64.43 87.5201C59.83 87.1201 55.24 84.0401 51.75 81.2001C48.16 78.2901 45.01 74.8401 42.33 71.0801C36.74 63.2301 32.77 54.2001 29.88 45.0301C26.83 35.3301 25.05 23.9801 30.59 14.8101C34.91 7.65011 43.05 2.94011 51.34 6.04011C55.29 7.51011 58.52 10.5801 61.14 13.7801C63.99 17.2601 66.23 21.2701 68.18 25.3101C70.46 30.0201 72.39 35.0501 73.11 40.2601C73.74 44.8701 73.44 50.4201 70.66 54.3501C69.79 55.5701 68.23 57.0401 66.63 56.2601C65.17 55.5401 64.29 53.5301 63.73 52.0801C61.85 47.2301 60.7 42.0901 60.36 36.8901C60.02 31.6901 60.44 26.3101 61.69 21.1701C62.74 16.8401 64.13 11.3901 67.66 8.36011C68.91 7.28011 70.34 6.79011 71.8 7.70011C73.71 8.89011 75 11.3401 76.16 13.2001C78.91 17.6001 81.06 22.3201 82.56 27.2801C84.06 32.2401 84.87 37.2001 85.04 42.3101L89.31 40.5401C87.24 38.2001 83.9 34.2301 85 31.0101C85.36 29.9601 86.13 29.0501 87.18 28.4901C87.55 28.2901 88.11 28.1201 88.38 28.1101C88.96 28.0901 89.05 28.0901 89.41 28.4101C90.43 29.3001 91.95 29.4101 92.95 28.4101C93.86 27.5001 93.97 25.7701 92.95 24.8701C88.92 21.3401 82.94 23.7501 80.76 28.2301C77.97 33.9701 82.09 39.9001 85.78 44.0701C87.21 45.6901 90.12 44.4101 90.05 42.3001C89.66 30.5101 86.01 18.8401 79.43 9.03011C77.91 6.76011 76.21 4.22011 73.66 3.01011C71.11 1.80011 68.25 2.01011 65.87 3.50011C61.15 6.44011 59.04 12.2501 57.55 17.3201C54.21 28.6801 54.49 41.2301 58.53 52.3801C60.23 57.0801 63.66 62.9701 69.66 61.1501C75.22 59.4601 77.49 52.7501 78.15 47.5901C78.91 41.6601 77.65 35.6201 75.62 30.0601C73.75 24.9201 71.32 19.9001 68.37 15.2901C63.06 7.05011 54.64 -1.05989 44.02 0.11011C33.4 1.28011 25.66 10.0101 23.13 19.7101C20.02 31.6601 23.82 44.2901 28.32 55.3601C32.28 65.1001 37.48 74.5801 45.09 81.9601C51.92 88.5801 65.21 97.6801 73.92 89.1101C77.19 85.8901 78.36 81.1501 78.65 76.7101C78.97 71.7801 78 66.8001 76.87 62.0201C74.41 51.5801 70.08 41.5301 64.23 32.5401C58.32 23.4501 50.83 15.1001 42 8.76011C37.24 5.35011 31.7 2.67011 25.76 2.46011C20.51 2.27011 15.53 4.26011 11.45 7.47011C2.28002 14.6901 -0.459984 26.6301 0.0600159 37.7901C0.630016 49.8601 3.64002 62.0201 8.01002 73.2501C12.37 84.4601 18.21 95.2301 25.87 104.54C32.38 112.45 42.95 123.07 54.16 118.06C63.01 114.1 66.04 102.44 62.95 93.8701C59.07 83.1101 49.24 76.6201 40.12 70.6201C35.51 67.5901 30.97 64.4701 27.17 60.4301C24.96 58.0801 21.43 61.6201 23.63 63.9701L23.64 63.9501Z" fill="#65D1E5"/>
</g>
</g>
<defs>
<clipPath id="clip0_175_1535">
<rect width="94" height="120" fill="white"/>
</clipPath>
<clipPath id="clip1_175_1535">
<rect width="93.66" height="119.34" fill="white"/>
</clipPath>
</defs>
</svg>
