<svg width="150" height="134" viewBox="0 0 150 134" fill="none" xmlns="http://www.w3.org/2000/svg">
<g clip-path="url(#clip0_175_1367)">
<path d="M7.31 104.95C10.38 89.6901 14.31 74.2701 22.17 60.6901C29.35 48.3001 40.14 37.8101 53.84 33.0201C61.15 30.4601 69 29.6601 76.59 31.3901C78.59 31.8501 80.67 29.6401 79.41 27.7201C74.17 19.7501 70.24 11.0401 67.75 1.83007L64.67 4.91007C85.69 10.1901 106.77 15.2601 127.89 20.1201C133.86 21.4901 139.83 22.8501 145.8 24.1801V19.3601C131.47 21.7801 117.59 27.0101 105.2 34.6201C101.6 36.8301 98.15 39.2701 94.8 41.8601L98.73 42.3701C95.84 38.3301 92.95 34.2901 90.06 30.2501C89.32 29.2201 87.83 28.5201 86.64 29.3501C73.91 38.2601 60.89 47.3801 50.95 59.4801C45.85 65.6801 41.76 72.5001 38.85 79.9901C35.94 87.4801 34.24 95.7401 33.5 103.9C32.67 113.08 33.07 122.33 34.22 131.46L37.38 129.05C25.38 124.97 14.09 118.76 4.24 110.78C3.19 109.93 1.73 109.76 0.700002 110.78C-0.179998 111.66 -0.349998 113.46 0.700002 114.32C11.25 122.88 23.18 129.5 36.04 133.88C37.44 134.36 39.4 133.05 39.2 131.47C37.23 115.9 37.41 99.7401 42.42 84.7301C44.83 77.5201 48.46 70.7701 53.09 64.7501C57.72 58.7301 62.99 53.7001 68.65 48.9501C75.18 43.4701 82.16 38.5601 89.14 33.6701L85.72 32.7701C88.61 36.8101 91.5 40.8501 94.39 44.8901C95.41 46.3201 96.96 46.4401 98.32 45.4001C112.51 34.4301 129.44 27.1801 147.11 24.1901C149.56 23.7801 149.42 19.8901 147.11 19.3701C125.96 14.6301 104.86 9.68007 83.81 4.52007C77.86 3.06007 71.92 1.59007 65.99 0.0900745C64.15 -0.369925 62.41 1.30007 62.91 3.17007C65.5 12.7701 69.61 21.9501 75.07 30.2501L77.89 26.5801C62.9 23.1701 47.51 28.2601 35.59 37.4701C22.77 47.3701 14.68 61.7601 9.43 76.8501C6.4 85.5801 4.27 94.5901 2.45 103.63C2.18 104.95 2.83 106.33 4.2 106.71C5.43 107.05 7.01 106.29 7.28 104.96L7.31 104.95Z" fill="#E26901"/>
<path d="M12.2401 110.65C16.1101 117.59 19.9901 124.54 23.8601 131.48C25.4401 134.31 29.5901 131.82 28.1801 128.96C20.3601 113.14 15.1901 96.07 12.8001 78.59L7.98006 79.92C13.0801 94.69 20.0501 108.78 28.7701 121.75C30.1701 123.84 33.2801 123.01 33.4301 120.49C34.3801 104.91 26.3901 90.86 23.8601 75.83C23.1901 71.83 22.9801 67.66 23.5701 63.64H18.7501C21.1401 74.45 24.9501 84.91 30.0001 94.75C31.0801 96.86 34.9401 95.98 34.6601 93.49C33.1201 80.01 31.5801 66.53 30.0401 53.05L25.1301 53.71C27.0801 62.78 29.9301 71.59 33.5501 80.13C33.9701 81.13 35.4101 81.54 36.3701 81.28C37.4801 80.98 38.1301 79.97 38.2101 78.87C39.0401 67.02 39.8701 55.18 40.6901 43.33L35.7801 43.99C37.5601 53.71 39.3501 63.42 41.1301 73.14C41.5601 75.49 45.5901 75.57 45.9501 73.14C47.6701 61.69 49.3801 50.25 51.1001 38.8H46.2801C47.3001 45.87 48.3201 52.94 49.3501 60.01C49.5001 61.08 50.7601 61.85 51.7601 61.85C52.8901 61.85 53.8401 61.07 54.1701 60.01C56.4401 52.85 57.9901 45.52 58.9201 38.07H53.9201C54.1501 43.18 55.0301 48.24 56.6101 53.1C57.3701 55.44 60.7001 55.51 61.4301 53.1C63.0701 47.72 64.7001 42.33 66.3401 36.95L61.4301 36.29C61.7101 39.01 62.4101 41.52 63.6101 43.98C64.6201 46.04 67.5401 45.27 68.1801 43.38C70.4201 36.74 72.2601 29.98 73.7101 23.13L68.8001 22.47C69.3101 28.11 69.8201 33.74 70.3301 39.38C70.6201 42.55 75.2001 42.64 75.3301 39.38C75.5801 33.3 75.8301 27.22 76.0801 21.13C76.2001 18.18 76.22 15.2 76.4501 12.25C76.5001 11.58 76.7401 10.71 77.1201 10C77.1601 9.92002 77.66 9.19002 77.7101 9.26002C77.7801 9.36002 77.0901 9.51002 76.9701 9.44002L75.7301 7.28002C75.0901 17.69 76.0801 28.17 78.6101 38.28C79.2301 40.75 82.7201 40.56 83.4301 38.28C86.3901 28.8 88.0901 18.96 88.5501 9.04002L83.6401 9.70002C86.9501 18.43 89.33 27.53 90.5601 36.79C90.7201 38.02 91.3801 39.09 92.7301 39.25C93.9901 39.4 95.0901 38.67 95.4701 37.46C98.3201 28.52 101.18 19.58 104.03 10.64L99.1201 9.98002C98.1701 19.87 98.0701 29.82 98.8201 39.73C99.0401 42.63 102.7 43.02 103.73 40.39C106.66 32.95 109.6 25.5 112.53 18.06L107.62 17.4C107.76 23.99 107.9 30.58 108.04 37.17C108.09 39.58 111.48 40.67 112.7 38.43C116.37 31.7 120.6 25.27 125.4 19.28L121.13 17.51C120.99 25.52 120.14 33.47 118.54 41.32C118.29 42.54 118.79 43.79 119.99 44.27C121.07 44.71 122.55 44.38 123.11 43.25C126.94 35.54 130.77 27.83 134.6 20.12L130.03 19.52C130.82 21.52 131.05 23.45 130.77 25.58C130.52 27.52 133.06 28.62 134.53 27.74C136.56 26.52 138.59 25.31 140.61 24.09C143.37 22.44 140.86 18.11 138.09 19.77C136.06 20.99 134.03 22.2 132.01 23.42L135.77 25.58C136.09 23.09 135.77 20.52 134.85 18.19C134.14 16.38 131.33 15.48 130.28 17.59C126.45 25.3 122.62 33.01 118.79 40.72L123.36 42.65C125.04 34.37 125.98 25.95 126.13 17.51C126.17 15.5 123.26 14 121.86 15.74C116.79 22.07 112.26 28.78 108.38 35.9L113.04 37.16C112.9 30.57 112.76 23.98 112.62 17.39C112.59 16.16 111.69 15.08 110.45 14.93C109.13 14.77 108.18 15.53 107.71 16.72C104.78 24.16 101.84 31.61 98.9101 39.05L103.82 39.71C103.07 29.8 103.17 19.85 104.12 9.96002C104.4 7.05002 100.03 6.72002 99.2101 9.30002C96.3601 18.24 93.5001 27.18 90.6501 36.12L95.5601 36.78C94.26 27.05 91.9401 17.54 88.4601 8.36002C87.48 5.77002 83.6901 6.09002 83.5501 9.02002C83.1101 18.51 81.4301 27.87 78.6001 36.93H83.4201C80.9901 27.22 80.1001 17.25 80.7201 7.26002C80.7701 6.41002 80.2101 5.51002 79.4801 5.10002C76.7301 3.56002 73.98 5.14002 72.6401 7.73002C71.1401 10.64 71.3601 13.97 71.2301 17.15C70.9301 24.55 70.6201 31.94 70.3201 39.34H75.3201C74.8101 33.7 74.3001 28.07 73.7901 22.43C73.6801 21.19 72.9301 20.13 71.6201 19.97C70.4601 19.83 69.1401 20.53 68.8801 21.76C67.4301 28.61 65.5801 35.37 63.3501 42.01L67.9201 41.41C67.1301 39.8 66.6001 38.03 66.4201 36.24C66.1401 33.53 62.3801 32.73 61.5101 35.58C59.8701 40.96 58.2401 46.35 56.6001 51.73H61.4201C59.9801 47.28 59.1201 42.71 58.9101 38.03C58.8501 36.68 57.8001 35.53 56.4101 35.53C54.9201 35.53 54.0801 36.68 53.9101 38.03C53.0401 45.02 51.4701 51.92 49.3401 58.64H54.1601C53.1401 51.57 52.1201 44.5 51.0901 37.43C50.7401 35.04 46.6301 35.05 46.2701 37.43C44.5501 48.88 42.8401 60.32 41.1201 71.77H45.9401C44.1601 62.05 42.3701 52.34 40.5901 42.62C40.3701 41.41 38.9801 40.66 37.8501 40.83C36.5701 41.02 35.7701 42.01 35.6801 43.29C34.8501 55.14 34.0201 66.98 33.2001 78.83L37.8601 77.57C34.4201 69.44 31.8001 60.97 29.9401 52.35C29.3601 49.64 24.7101 50.19 25.0301 53.01C26.5701 66.49 28.1101 79.97 29.6501 93.45L34.3101 92.19C29.4501 82.72 25.8601 72.66 23.5601 62.27C23.0501 59.98 19.1101 59.8 18.7401 62.27C16.3801 78.14 24.1401 92.56 27.3501 107.69C28.2401 111.89 28.6801 116.15 28.4201 120.45L33.0801 119.19C24.6001 106.57 17.7601 92.92 12.7901 78.55C12.3501 77.27 11.0801 76.43 9.71006 76.8C8.27006 77.2 7.78006 78.53 7.96006 79.88C10.4101 97.81 15.8201 115.23 23.8401 131.44L28.1601 128.92C24.2901 121.98 20.4101 115.03 16.5401 108.09C14.9701 105.28 10.6501 107.8 12.2201 110.61L12.2401 110.65Z" fill="#E26901"/>
</g>
<defs>
<clipPath id="clip0_175_1367">
<rect width="149.08" height="133.96" fill="white"/>
</clipPath>
</defs>
</svg>
