<svg width="94" height="143" viewBox="0 0 94 143" fill="none" xmlns="http://www.w3.org/2000/svg">
<g clip-path="url(#clip0_175_1394)">
<g clip-path="url(#clip1_175_1394)">
<path d="M84.9199 2.50001C87.5599 23.47 90.3599 45.12 86.2699 66.1C83.0399 82.69 74.9299 98.5 61.4999 109.11C54.6199 114.54 46.2699 118.29 37.5099 119.14C36.1699 119.27 35.0099 120.2 35.0099 121.64C35.0099 122.89 36.1599 124.27 37.5099 124.14C55.0499 122.44 69.6899 111.3 79.2599 96.94C90.4899 80.08 93.6499 59.65 93.2599 39.73C93.0199 27.26 91.4799 14.86 89.9299 2.51001C89.7599 1.17001 88.8999 0.0100098 87.4299 0.0100098C86.2099 0.0100098 84.7599 1.16001 84.9299 2.51001L84.9199 2.50001Z" fill="#E26901"/>
<path d="M34.5599 121.43C37.3699 127.88 40.1799 134.33 42.9899 140.78L45.8099 137.11C31.7899 133.04 17.0299 131.6 2.49994 132.94L3.75994 137.6C15.5499 128.98 21.8599 115.36 32.4499 105.56L28.5199 102.53C22.0999 111.83 15.0099 120.63 7.29994 128.89C5.05994 131.29 8.37994 134.42 10.8399 132.43C18.6199 126.13 25.5499 118.91 31.6299 110.97L26.9699 109.71C26.9199 116.22 23.6899 122.06 20.6299 127.61C19.0699 130.44 23.1999 132.83 24.9499 130.13C26.4499 127.82 27.9399 125.5 29.4399 123.19C30.1399 122.1 30.8499 121.01 31.5499 119.92C31.9499 119.31 32.3399 118.7 32.7399 118.08L33.2699 117.26L33.5299 116.85C33.6999 116.59 33.7099 116.58 33.5499 116.8L32.2899 117.14C32.1899 117.15 31.0699 116.32 31.0399 116.34C31.0899 116.31 31.0399 116.53 31.0399 116.7C30.9999 117.32 30.8899 117.95 30.8199 118.57C30.6399 120.05 30.4599 121.53 30.2699 123.01C29.9199 125.89 29.5599 128.77 29.2099 131.64C28.9599 133.66 31.4799 134.57 32.9699 133.8C35.7599 132.37 37.7799 129.8 38.6299 126.8L34.0599 127.4C35.4899 129.27 36.0899 131.29 35.8699 133.64L40.5299 132.38C34.3799 122.74 30.9699 111.58 30.7499 100.15C30.6899 96.94 25.6899 96.93 25.7499 100.15C25.9899 112.43 29.6099 124.55 36.2099 134.91C37.6099 137.11 40.6399 136.07 40.8699 133.65C41.1599 130.56 40.2699 127.35 38.3799 124.89C37.1299 123.26 34.4499 123.24 33.8099 125.49C33.2999 127.31 32.1199 128.64 30.4499 129.5L34.2099 131.66C34.6599 128.04 35.0999 124.42 35.5499 120.8C35.8799 118.15 37.0599 113.72 33.7399 112.38C31.9399 111.65 30.3699 112.66 29.3599 114.13C28.3499 115.6 27.4199 117.13 26.4599 118.62C24.5199 121.61 22.5899 124.61 20.6499 127.6L24.9699 130.12C28.4699 123.77 31.9299 117.12 31.9899 109.69C31.9899 108.59 31.2099 107.57 30.1499 107.28C28.9899 106.96 28.0099 107.54 27.3299 108.43C21.5199 116.02 14.7499 122.87 7.31994 128.88L10.8599 132.42C18.8499 123.85 26.1999 114.69 32.8599 105.05C34.5299 102.63 30.9399 100.16 28.9299 102.02C18.6999 111.49 12.6199 124.97 1.25994 133.28C0.349942 133.94 -0.200058 134.96 0.109942 136.1C0.379942 137.09 1.43994 138.03 2.51994 137.94C16.6499 136.64 30.8699 137.97 44.4999 141.93C46.7899 142.6 48.1399 140.14 47.3199 138.26L38.8899 118.91C38.3499 117.67 36.5399 117.39 35.4699 118.01C34.1899 118.76 34.0299 120.19 34.5699 121.43H34.5599Z" fill="#E26901"/>
</g>
</g>
<defs>
<clipPath id="clip0_175_1394">
<rect width="94" height="143" fill="white"/>
</clipPath>
<clipPath id="clip1_175_1394">
<rect width="94" height="143" fill="white"/>
</clipPath>
</defs>
</svg>
