<svg width="140" height="109" viewBox="0 0 140 109" fill="none" xmlns="http://www.w3.org/2000/svg">
<g clip-path="url(#clip0_175_1369)">
<g clip-path="url(#clip1_175_1369)">
<path d="M32.1968 108.574C53.5868 94.887 78.9346 87.8197 104.325 88.2667C111.441 88.3944 118.535 89.0969 125.534 90.4273C127.219 90.7466 128.905 89.7036 128.905 87.8623C128.969 73.6851 132.671 59.6889 139.659 47.3425C140.939 45.0754 138.336 42.2762 136.01 43.7024C129.385 47.7576 122.696 51.6957 115.943 55.506C114.289 56.4427 112.636 57.358 110.972 58.284C109.307 59.21 107.75 60.253 105.979 60.7852C102.778 61.7431 100.666 58.1882 98.831 56.1234C88.3867 44.4049 77.9425 32.6864 67.4982 20.9573C61.5133 14.2412 55.5284 7.52517 49.5435 0.809127C47.9326 -0.989623 45.0628 0.511109 44.9881 2.69302C44.4974 17.1256 44.0066 31.5582 43.5159 45.9907C43.2705 53.207 43.0252 60.4233 42.7798 67.6396C42.7478 68.4379 42.5984 69.3426 42.6945 70.1302C42.6945 70.1621 42.6304 70.5559 42.6198 70.5559C42.6198 70.5559 43.0038 70.0663 43.0145 70.1515C43.0038 70.0557 38.3311 70.2473 37.9044 70.2473C34.2132 70.3111 30.5326 70.3856 26.8414 70.4495C18.7655 70.5985 10.6896 70.7475 2.61367 70.8965C-0.0427325 70.9497 -0.992211 74.4727 1.26947 75.8564C7.37173 79.5816 13.25 83.69 18.7975 88.1922C21.5606 90.438 24.2703 92.7795 26.8734 95.2063C28.7403 96.9411 31.5247 99.5062 30.4366 102.305C29.9138 103.647 31.0127 105.222 32.3035 105.584C33.8184 105.999 35.056 105.073 35.5894 103.721C37.0936 99.8681 34.9173 96.0045 32.3782 93.1734C29.8392 90.3422 26.6707 87.809 23.7049 85.3504C17.4639 80.1883 10.8709 75.4732 3.96855 71.2584L2.62434 76.2183C10.2628 76.0799 17.9013 75.9309 25.5398 75.7925C29.3164 75.718 33.093 75.6542 36.8589 75.5797C38.7045 75.5477 40.5501 75.5158 42.3851 75.4732C44.22 75.4307 46.1296 75.0156 47.2071 73.2594C48.0499 71.897 48.0286 70.226 48.0819 68.6827L48.2846 62.8713C48.4127 58.9971 48.5513 55.1229 48.6794 51.2593C48.9354 43.6918 49.1914 36.1242 49.4475 28.5567C49.7462 19.9355 50.0342 11.3036 50.3329 2.68238L45.7776 4.56628C56.8086 16.9447 67.8396 29.323 78.8706 41.7014C84.3328 47.8214 89.7843 53.9521 95.2465 60.0721C97.7002 62.8181 100.143 65.9473 104.101 66.2879C108.059 66.6285 111.75 63.925 115.025 62.105C123.016 57.6667 130.911 53.0474 138.709 48.2791L135.061 44.639C127.625 57.7944 123.645 72.7378 123.581 87.841L126.953 85.2759C100.805 80.316 73.4938 83.3494 48.9994 93.7055C42.225 96.5686 35.7067 99.9958 29.5084 103.955C26.628 105.797 29.2951 110.405 32.1968 108.553V108.574Z" fill="#E26901"/>
<path d="M6.33689 73.2059C19.9176 80.6032 32.4849 89.714 43.6973 100.357C46.2043 102.742 49.7248 99.1548 47.4738 96.5897C40.2087 88.3303 34.3518 78.9215 30.0312 68.8208L25.8385 72.0458C34.0745 79.6027 42.321 87.1596 50.557 94.7271C52.3492 96.3768 56.0511 94.7803 55.0163 92.1407C51.8905 84.1155 48.7647 76.101 45.6389 68.0758L40.7635 70.13C46.8657 78.4425 54.6963 85.3289 63.8283 90.1504C66.2927 91.4489 68.6077 88.8838 67.4769 86.5103C61.8547 74.6322 56.6272 62.5731 51.8052 50.3437L46.9298 52.3979C54.7389 65.7449 65.6526 77.1334 78.6466 85.5524C80.9296 87.0318 83.6073 84.1368 82.2951 81.9123C73.6432 67.1924 65.77 52.036 58.7289 36.4859C56.7552 32.1221 54.8456 27.7263 53 23.3093C52.4453 21.9788 51.2291 21.0315 49.7142 21.4466C48.402 21.8085 47.3671 23.3625 47.8472 24.7248C54.8243 44.245 66.026 62.1686 80.5882 76.9631C84.6528 81.0928 88.9735 84.9564 93.5182 88.5432C95.8972 90.4165 99.0337 88.16 97.7108 85.3182C89.1655 66.9901 79.5961 49.141 69.0345 31.8986C66.0367 27.0025 62.9535 22.1491 59.8064 17.3489C57.9288 14.4858 53.5974 16.987 55.1977 20.0311C65.0338 38.7636 75.2114 57.9112 90.2857 73.0569C94.5423 77.3356 99.1937 81.2205 104.176 84.637C106.491 86.2229 109.009 83.1895 107.824 80.997C101.829 69.9171 95.8332 58.8372 89.8483 47.7574L85.2396 50.4395C95.1718 63.531 105.115 76.6331 115.047 89.7246C115.847 90.7784 117.063 91.385 118.375 90.8103C119.538 90.2994 120.338 88.9583 119.922 87.6704C117.052 78.7725 113.265 70.1725 108.614 62.0516C107.12 59.4439 102.896 61.1788 103.738 64.1058C105.787 71.1837 109.329 77.6656 114.119 83.2747C115.538 84.9351 118.941 83.6685 118.674 81.3908C117.874 74.5257 117.063 67.65 116.263 60.785L111.025 61.4875C112.198 67.4797 114.673 73.2059 118.247 78.1658C119.538 79.9646 122.461 79.8794 123.123 77.5272C124.574 72.3864 124.691 67.054 123.539 61.8493L119.079 64.4357C121.693 67.7245 126.195 65.3723 128.083 62.605C129.001 61.2533 129.278 59.6781 129.737 58.1454C129.908 57.5813 130.078 57.0385 130.324 56.5914C130.569 56.1444 130.687 56.038 131.017 55.9422C134.324 55.0481 132.927 49.918 129.598 50.812C126.611 51.6103 125.278 54.3031 124.488 57.0598C124.211 58.0603 124.083 59.1352 123.443 59.9229C123.123 60.3167 122.749 60.4231 122.397 60.7424C122.579 60.5721 122.792 60.8914 122.344 60.7105C122.653 60.8382 123.197 61.1256 122.835 60.6679C122.109 59.7632 120.541 59.71 119.602 60.2528C118.546 60.8701 118.119 62.1048 118.375 63.2543C119.314 67.533 119.143 71.8968 117.959 76.101L122.835 75.4624C119.495 70.8218 117.255 65.6491 116.146 60.0506C115.58 57.1449 110.555 57.7622 110.908 60.7531C111.708 67.6181 112.518 74.4938 113.319 81.3589L117.874 79.475C113.692 74.5789 110.651 68.8208 108.859 62.6476L103.984 64.7018C108.411 72.4396 112.017 80.5712 114.759 89.0541L119.634 86.9999C109.702 73.9084 99.7591 60.8063 89.827 47.7148C88.9628 46.5759 87.5226 45.9692 86.1784 46.7569C84.8342 47.5445 84.5355 49.1304 85.2183 50.3969C91.2138 61.4768 97.2094 72.5567 103.194 83.6366L106.843 79.9965C89.7523 68.2993 78.0812 50.6737 68.149 32.8884C65.2792 27.7369 62.5161 22.5216 59.785 17.3063L55.1763 19.9885C66.2714 36.901 76.4276 54.4202 85.549 72.4609C88.1414 77.5804 90.6484 82.7532 93.0701 87.9578L97.2628 84.7328C81.495 72.28 68.5757 56.485 59.529 38.572C57.022 33.6122 54.835 28.5033 52.968 23.2667L47.8259 24.6823C54.5042 40.7327 61.9934 56.4318 70.3467 71.6839C72.715 76.0158 75.1581 80.3051 77.6544 84.5625L81.303 80.9225C69.0771 73.0037 58.8462 62.2431 51.5064 49.6838C50.0342 47.172 45.4895 48.8536 46.631 51.738C51.6238 64.3931 57.022 76.8779 62.8468 89.1712L66.4954 85.5311C58.1955 81.146 50.8984 74.9834 45.3402 67.4159C44.5614 66.3515 43.3025 65.7555 42.0117 66.3302C40.9022 66.8198 39.974 68.2141 40.4648 69.4701C43.5906 77.4953 46.7164 85.5098 49.8422 93.535L54.3015 90.9486C46.0656 83.3918 37.819 75.8349 29.5831 68.2674C28.6123 67.3733 27.1401 67.2137 26.0839 68.0545C24.9637 68.9485 24.857 70.2258 25.4011 71.4923C29.9138 82.0188 36.1228 91.7363 43.6866 100.336L47.4632 96.5684C35.9307 85.6269 22.9901 76.1968 9.0253 68.5867C6.00617 66.9476 3.31776 71.5349 6.33689 73.1847V73.2059Z" fill="#E26901"/>
</g>
</g>
<defs>
<clipPath id="clip0_175_1369">
<rect width="140" height="109" fill="white"/>
</clipPath>
<clipPath id="clip1_175_1369">
<rect width="140" height="109" fill="white"/>
</clipPath>
</defs>
</svg>
