<svg width="60" height="82" viewBox="0 0 60 82" fill="none" xmlns="http://www.w3.org/2000/svg">
<g clip-path="url(#clip0_175_1400)">
<g clip-path="url(#clip1_175_1400)">
<path d="M26.85 59.16C20.35 47.5 13.86 35.84 7.36 24.19L4.54 27.86C21.29 34.74 39.87 33.01 57.43 31.19L56.17 26.53C37.85 37.08 19.54 47.63 1.22 58.17L4.25 62.1C9.56 55.37 12.79 47.48 15.39 39.37C17.89 31.59 19.81 23.56 23.1 16.06C24.94 11.87 27.18 7.81002 30.11 4.28002L25.84 2.51002C24.97 22.44 24.43 42.38 24.21 62.33C24.15 67.98 24.11 73.63 24.11 79.28L29.02 78.62C27.64 69.53 25.02 60.73 21.34 52.3C20.8 51.06 18.99 50.78 17.92 51.4C16.64 52.15 16.48 53.58 17.02 54.82C20.51 62.83 22.88 71.32 24.2 79.95C24.63 82.79 29.11 82.03 29.11 79.29C29.14 59.34 29.5 39.4 30.18 19.46C30.37 13.81 30.6 8.16002 30.84 2.52002C30.93 0.46002 27.97 -0.91998 26.57 0.75002C15.57 13.97 13.86 31.46 7.39 46.85C5.65 50.98 3.5 55.04 0.720004 58.56C-0.0499964 59.54 -0.309996 60.79 0.520004 61.84C1.29 62.81 2.64 63.12 3.75 62.48C22.07 51.93 40.38 41.39 58.7 30.84C60.72 29.68 59.99 25.92 57.44 26.18C40.29 27.96 22.24 29.75 5.88 23.02C3.74 22.14 2.09 24.96 3.06 26.69C9.56 38.35 16.05 50.01 22.55 61.66C24.12 64.47 28.44 61.95 26.87 59.14L26.85 59.16Z" fill="#E26901"/>
</g>
</g>
<defs>
<clipPath id="clip0_175_1400">
<rect width="60" height="82" fill="white"/>
</clipPath>
<clipPath id="clip1_175_1400">
<rect width="59.86" height="81.74" fill="white"/>
</clipPath>
</defs>
</svg>
