<svg width="110" height="129" viewBox="0 0 110 129" fill="none" xmlns="http://www.w3.org/2000/svg">
<g clip-path="url(#clip0_175_1431)">
<g clip-path="url(#clip1_175_1431)">
<path d="M32.13 34.5C35.91 29.81 40.06 25.44 44.57 21.46C49.08 17.48 53.56 13.75 58.8 11.31C63.1 9.30999 68.42 8.98999 71.24 13.45C74.06 17.91 73.97 23.53 73.59 28.48C72.7 40.2 67.79 51.54 62.26 61.78C57.04 71.44 50.66 80.45 43.27 88.57C35.88 96.69 27.74 104.03 18.62 109.85C15.49 111.85 9.39 115.08 6.38 111.18C5.04 109.44 4.95 106.98 5 104.89C5.05 102.35 5.35 99.8 5.66 97.27C8.24 76.33 16.44 56.12 28.65 38.96C34.75 30.39 41.95 22.59 49.98 15.8C54.14 12.28 58.61 8.60999 63.68 6.48999C68.12 4.62999 73.76 4.14999 77.83 7.17999C82.11 10.35 82.4 16.51 82.26 21.35C82.08 27.6 80.63 33.73 78.71 39.66C75.38 49.94 70.69 59.76 64.94 68.91C59.19 78.06 52.44 86.36 44.75 93.83C40.99 97.49 37.02 100.95 32.85 104.13C30.7 105.76 28.5 107.33 26.26 108.83C25.32 109.46 24.21 110.47 23.08 110.68C22.43 110.8 22.24 110.43 21.88 109.69C20.88 107.66 21.1 104.92 21.19 102.59C21.31 99.5 21.72 96.44 22.35 93.41C23.6 87.39 25.55 81.52 27.73 75.78C31.4 66.1 36.11 56.73 42.16 48.31C48.21 39.89 55.12 33.17 63.71 28.23C65.88 26.99 68.13 25.81 70.47 24.92C72.18 24.27 74.41 23.62 76.05 24.29C76.5 24.47 76.96 24.93 77.1 25.77C77.34 27.16 77.13 28.71 77.02 30.11C76.79 33.05 76.34 35.95 75.72 38.83C73.08 51.03 67.62 62.38 61.89 73.39C56.16 84.4 49.57 95.63 42.55 106.22C40.99 108.58 39.5 111.12 37.62 113.25C36.35 114.69 34.54 116.53 32.44 115.99L34.19 119.07C38.17 97.96 48.02 78.07 62.42 62.12C66.02 58.13 69.89 54.39 74 50.94C76.18 49.11 82.66 43.49 84.42 48.43C85.4 51.18 85.23 54.48 84.84 57.33C84.4 60.51 83.53 63.62 82.66 66.7C80.94 72.81 79.05 78.87 76.99 84.88C72.35 98.4 66.85 111.6 60.53 124.41L65.1 126.34C69.95 110.37 77.03 94.87 86.4 81.02C88.45 77.99 90.77 74.99 93.71 72.77C94.42 72.24 95.17 71.75 95.94 71.32C96.28 71.13 96.62 70.95 97 70.86C97.29 70.79 97.14 70.78 97.23 70.86C97.34 70.95 97.47 71.4 97.52 71.67C97.64 72.41 97.57 73.23 97.48 73.96C96.49 81.78 94.25 89.59 91.43 96.93C88.2 105.33 83.83 113.3 78.61 120.62L83.18 122.55C84.77 117.64 86.9 112.94 89.53 108.5C90.88 106.22 92.36 104.02 93.95 101.9C95.42 99.95 96.99 97.93 98.84 96.33C99.59 95.68 100.55 94.98 101.56 94.86C102.26 94.78 102.89 95.1 103.13 95.3C104.13 96.18 104.44 97.99 104.5 99.53C104.59 101.73 104.31 103.96 104.01 106.13C103.66 108.72 103.14 111.37 102.13 113.78C100.33 118.07 96.44 121.89 91.5 121.43C90.15 121.31 89 122.67 89 123.93C89 125.38 90.15 126.31 91.5 126.43C97.26 126.96 102.58 123.14 105.41 118.36C107.05 115.59 107.99 112.43 108.55 109.28C109.05 106.46 109.47 103.53 109.52 100.67C109.6 95.71 107.39 89.32 101.27 89.89C97.98 90.2 95.35 92.49 93.27 94.87C91.19 97.25 89.36 99.63 87.63 102.17C83.64 108.03 80.54 114.48 78.35 121.22C77.97 122.39 78.7 123.73 79.8 124.17C81.02 124.66 82.18 124.19 82.92 123.15C93.13 108.84 100.24 91.73 102.45 74.24C102.91 70.59 101.64 65.76 97.1 65.85C94.8 65.89 92.64 67.37 90.88 68.72C89.12 70.07 87.64 71.45 86.24 73.06C83.36 76.37 80.99 80.11 78.7 83.85C76.29 87.8 74.04 91.84 71.96 95.97C67.24 105.29 63.34 115.03 60.3 125.03C59.49 127.69 63.6 129.53 64.87 126.96C70.93 114.68 76.27 102.04 80.83 89.12C83.08 82.76 85.13 76.34 87 69.86C88.87 63.38 90.87 56.44 89.81 49.54C89.35 46.52 88.11 43.49 85.15 42.16C82.4 40.93 79.44 41.65 76.84 42.9C74.24 44.15 71.95 46.19 69.74 48.07C67.53 49.95 65.57 51.77 63.59 53.72C55.33 61.88 48.24 71.26 42.6 81.41C36.32 92.73 31.8 105.04 29.4 117.76C29.15 119.07 29.75 120.48 31.15 120.84C37.86 122.56 42.16 115.85 45.34 111.12C49.2 105.39 52.89 99.56 56.41 93.62C63.39 81.86 69.98 69.7 75.18 57.04C77.71 50.88 79.81 44.52 81.02 37.97C81.64 34.64 82.07 31.25 82.19 27.87C82.3 24.85 81.61 21.73 78.8 20.11C74 17.34 67.86 20.45 63.51 22.69C58.6 25.23 54.06 28.47 49.95 32.15C41.62 39.6 35.07 48.96 29.91 58.83C27.27 63.89 24.97 69.13 22.94 74.47C20.59 80.65 18.5 86.99 17.29 93.5C16.65 96.97 16.22 100.5 16.19 104.03C16.17 106.86 16.27 109.83 17.67 112.37C19.07 114.91 22.1 116.38 25.01 115.32C27.92 114.26 30.34 112.17 32.71 110.45C42.12 103.66 50.68 95.71 58.11 86.79C65.58 77.82 71.98 67.97 76.99 57.42C82.45 45.95 87.18 33.26 87.31 20.41C87.37 14.45 86.36 7.68999 81.47 3.67999C76.83 -0.12001 70.41 -0.78001 64.79 0.80999C58.65 2.54999 53.45 6.55999 48.56 10.51C44.11 14.11 39.9 18.02 35.98 22.19C20.17 38.99 8.77 59.96 3.34 82.39C1.97 88.05 0.999997 93.8 0.399997 99.59C-0.150003 104.87 -0.820003 111.52 3.59 115.46C8.35 119.71 15.08 117.71 20 114.86C24.92 112.01 29.85 108.01 34.33 104.19C52.57 88.63 67.37 67.91 75.07 45.11C77.25 38.66 78.69 31.87 78.73 25.04C78.77 19.45 77.91 13.43 74.15 9.04999C69.95 4.14999 63.21 4.08999 57.64 6.39999C51.71 8.85999 46.5 13.17 41.69 17.34C36.88 21.51 32.55 26.05 28.59 30.97C27.74 32.02 27.56 33.48 28.59 34.51C29.47 35.39 31.27 35.57 32.13 34.51V34.5Z" fill="#E26901"/>
</g>
</g>
<defs>
<clipPath id="clip0_175_1431">
<rect width="110" height="129" fill="white"/>
</clipPath>
<clipPath id="clip1_175_1431">
<rect width="109.5" height="128.15" fill="white"/>
</clipPath>
</defs>
</svg>
