<svg width="140" height="213" viewBox="0 0 140 213" fill="none" xmlns="http://www.w3.org/2000/svg">
<g clip-path="url(#clip0_175_1670)">
<path d="M126.943 4.3982C130.889 35.7452 135.074 68.1086 128.961 99.4705C124.132 124.27 112.009 147.904 91.9332 163.764C81.6486 171.881 69.1666 177.487 56.0717 178.757C54.0686 178.952 52.3346 180.342 52.3346 182.494C52.3346 184.363 54.0537 186.426 56.0717 186.232C82.2914 183.69 104.176 167.038 118.482 145.572C135.269 120.369 139.993 89.8288 139.41 60.0514C139.051 41.4106 136.749 22.8745 134.432 4.41315C134.178 2.41005 132.892 0.676025 130.695 0.676025C128.871 0.676025 126.703 2.3951 126.957 4.41315L126.943 4.3982Z" fill="#BA92EC"/>
<path d="M51.662 182.18C55.8625 191.822 60.063 201.464 64.2635 211.106L68.479 205.62C47.5212 199.536 25.4573 197.383 3.73712 199.386L5.62063 206.352C23.2449 193.467 32.6774 173.107 48.5078 158.457L42.6331 153.928C33.0361 167.83 22.4377 180.985 10.9124 193.332C7.56393 196.92 12.5268 201.599 16.2042 198.624C27.8341 189.206 38.1934 178.413 47.2821 166.544L40.3161 164.661C40.2413 174.392 35.413 183.122 30.8387 191.419C28.5068 195.649 34.6805 199.222 37.2965 195.186C39.5387 191.733 41.7661 188.264 44.0083 184.811C45.0547 183.182 46.1161 181.553 47.1625 179.923C47.7604 179.011 48.3434 178.1 48.9413 177.173L49.7336 175.947L50.1223 175.334C50.3764 174.945 50.3913 174.93 50.1522 175.259L48.2687 175.768C48.1192 175.782 46.4449 174.542 46.4001 174.572C46.4748 174.527 46.4001 174.856 46.4001 175.11C46.3403 176.037 46.1759 176.978 46.0712 177.905C45.8022 180.118 45.5331 182.33 45.2491 184.542C44.7259 188.847 44.1877 193.153 43.6645 197.443C43.2908 200.462 47.0578 201.823 49.2852 200.672C53.4558 198.534 56.4754 194.692 57.746 190.208L50.9145 191.105C53.0522 193.9 53.9491 196.92 53.6202 200.433L60.5862 198.549C51.3929 184.139 46.2955 167.456 45.9666 150.37C45.8769 145.572 38.4027 145.557 38.4923 150.37C38.8511 168.727 44.2625 186.844 54.1285 202.331C56.2212 205.62 60.7506 204.065 61.0944 200.447C61.528 195.828 60.1975 191.03 57.3723 187.353C55.5037 184.916 51.4975 184.886 50.5408 188.25C49.7785 190.97 48.0145 192.958 45.5181 194.244L51.1388 197.473C51.8114 192.061 52.4692 186.65 53.1419 181.239C53.6352 177.277 55.3991 170.655 50.4362 168.652C47.7455 167.561 45.3985 169.071 43.8887 171.268C42.379 173.465 40.9887 175.753 39.5537 177.98C36.6537 182.45 33.7686 186.934 30.8686 191.404L37.3264 195.171C42.5583 185.678 47.7305 175.738 47.8202 164.631C47.8202 162.987 46.6542 161.462 45.0697 161.028C43.3357 160.55 41.8707 161.417 40.8542 162.747C32.1691 174.093 22.049 184.333 10.9423 193.317L16.2341 198.609C28.1779 185.798 39.165 172.105 49.1207 157.695C51.6171 154.077 46.2506 150.385 43.246 153.165C27.9537 167.322 18.865 187.472 1.88351 199.894C0.523198 200.881 -0.298968 202.406 0.164435 204.11C0.568044 205.59 2.15258 206.995 3.76702 206.86C24.8892 204.917 46.146 206.905 66.5208 212.825C69.944 213.826 71.962 210.149 70.7362 207.339L58.1347 178.413C57.3274 176.56 54.6218 176.141 53.0223 177.068C51.1089 178.189 50.8697 180.327 51.6769 182.18H51.662Z" fill="#BA92EC"/>
</g>
<defs>
<clipPath id="clip0_175_1670">
<rect width="139.454" height="212.328" fill="white" transform="translate(0 0.661133)"/>
</clipPath>
</defs>
</svg>
