<svg width="43" height="45" viewBox="0 0 43 45" fill="none" xmlns="http://www.w3.org/2000/svg">
<g clip-path="url(#clip0_175_1470)">
<g clip-path="url(#clip1_175_1470)">
<path d="M22.93 16.3399C19.37 12.9399 15.63 9.53989 10.92 7.84989C8.78995 7.08989 6.34995 6.69989 4.14995 7.38989C1.77995 8.11989 0.0499504 10.1299 -4.96239e-05 12.6699C-0.0500496 15.3499 1.50995 17.9999 2.96995 20.1499C4.42995 22.2999 6.02995 24.1099 7.78995 25.8799C11.36 29.4799 15.29 32.7399 19.42 35.6699C24.09 38.9799 29.09 41.8099 34.32 44.1399C35.3499 44.5999 36.5 44.5899 37.3499 43.7499C38.07 43.0299 38.4 41.5899 37.74 40.7199C35.72 38.0799 33.66 35.3899 33.07 32.0299C32.4799 28.6699 32.8899 25.3199 33.4399 22.1499C34.5799 15.5099 37.13 9.25989 40.9 3.68989L36.24 2.42989C36.3 14.3099 34.8999 26.1199 32.07 37.6599H36.8899C35.32 31.0999 30.84 25.4099 24.8099 22.3799C19.5499 19.7399 12.85 18.8499 8.86995 14.1699L9.25995 17.1999C8.23995 18.6199 7.84995 17.4599 8.47995 17.8299C8.76995 17.9999 9.05995 18.1399 9.33995 18.3299C10.18 18.9199 10.9699 19.6199 11.78 20.2599C13.51 21.6299 15.2399 22.9999 16.9599 24.3699C20.4799 27.1599 24 29.9499 27.52 32.7499C28.5 33.5199 29.75 33.7799 30.7999 32.9499C31.7199 32.2199 32.15 30.7799 31.44 29.7199C26.3899 22.1799 18.6199 16.6999 9.75995 14.6399C8.00995 14.2399 6.80995 15.4199 6.59995 17.0499C6.17995 20.2399 8.68995 23.0099 10.62 25.2499C12.43 27.3499 14.45 29.2699 16.62 30.9899C21.12 34.5599 26.18 37.2699 31.66 39.0099C33.07 39.4599 35.02 38.1999 34.82 36.5999C34.1699 31.2399 34.3099 25.7799 35.4199 20.4899C35.9499 17.9499 36.6399 15.3999 37.61 12.9899C38.24 11.4299 39.16 9.57989 40.8899 9.09989L37.7299 6.68989C36.7999 17.6599 35.8699 28.6299 34.93 39.5899C34.82 40.9399 36.16 42.0899 37.43 42.0899C38.88 42.0899 39.82 40.9399 39.93 39.5899C40.86 28.6199 41.79 17.6499 42.7299 6.68989C42.8699 5.04989 41.02 3.86989 39.57 4.27989C33.8999 5.85989 32.09 12.8199 30.9 17.8299C29.4399 23.9599 29.0599 30.3499 29.82 36.6099L32.9799 34.1999C28.4 32.7499 24.08 30.4999 20.27 27.5599C18.45 26.1599 16.76 24.5799 15.2 22.8999C13.8499 21.4499 11.31 19.1999 11.59 17.0499L8.42995 19.4599C16.01 21.2099 22.7799 25.7599 27.1299 32.2399L31.0599 29.2099C26.6399 25.7099 22.2299 22.1999 17.8099 18.6999C15.75 17.0699 13.7199 15.0799 11.45 13.7399C9.17995 12.3999 6.56995 12.4099 4.94995 14.6699C4.26995 15.6099 4.66995 16.9099 5.33995 17.6999C9.36995 22.4299 15.5399 23.6699 20.9699 26.0599C26.4 28.4499 30.64 32.9899 32.08 38.9799C32.65 41.3699 36.32 41.3499 36.9 38.9799C39.84 27.0299 41.31 14.7299 41.25 2.41989C41.24 -0.170111 37.9399 -0.840111 36.59 1.15989C32.4399 7.27989 29.61 14.3499 28.49 21.6699C27.91 25.4499 27.5599 29.3399 28.2199 33.1399C28.8799 36.9399 31.0999 40.1899 33.4399 43.2399L36.86 39.8199C29.08 36.3499 21.7999 31.7799 15.41 26.1599C12.28 23.4099 9.08995 20.4499 6.83995 16.9099C6.27995 16.0299 4.48995 13.4599 5.06995 12.4799C5.53995 11.6799 7.51995 12.0599 8.43995 12.2999C12.8099 13.4799 16.2199 16.8299 19.41 19.8699C21.74 22.0899 25.28 18.5599 22.95 16.3299L22.93 16.3399Z" fill="#BA92EC"/>
</g>
</g>
<defs>
<clipPath id="clip0_175_1470">
<rect width="43" height="45" fill="white"/>
</clipPath>
<clipPath id="clip1_175_1470">
<rect width="42.73" height="44.45" fill="white"/>
</clipPath>
</defs>
</svg>
