<svg width="43" height="45" viewBox="0 0 43 45" fill="none" xmlns="http://www.w3.org/2000/svg">
<g clip-path="url(#clip0_175_1481)">
<g clip-path="url(#clip1_175_1481)">
<path d="M15.2799 12.9099C14.9099 10.5599 14.2099 8.33994 13.2399 6.16994C12.3699 4.20994 11.2499 2.12994 9.42995 0.899936C7.47995 -0.410064 4.87995 -0.250064 2.96995 1.03994C1.05995 2.32994 -0.0700511 4.54994 -0.500051 6.82994C-2.22005 15.9799 0.599949 25.2799 6.14995 32.5899C9.16995 36.5699 12.6999 40.1599 15.5399 44.2799C16.3099 45.3899 17.7299 45.8899 18.9599 45.1799C20.0699 44.5299 20.6099 42.8899 19.8599 41.7599C17.1999 37.7899 16.2599 32.8399 17.4099 28.1799C18.5599 23.5199 21.6199 19.8799 25.7499 17.6599C29.0699 15.8799 34.2999 14.5499 37.7099 16.8499C41.6399 19.4999 36.57 25.2099 34.4199 27.5299C30.6099 31.6199 25.7899 34.6399 20.4399 36.2499L22.8699 40.4299C26.2099 36.4699 28.51 31.8499 31.5 27.6499C33.8899 24.2799 37.0499 21.2099 41.1699 20.2199L39.24 15.6499C32.26 20.7599 24.8599 25.2599 17.1099 29.0999L20.5299 32.5199C23.4299 28.5099 26.6799 24.7699 30.1799 21.2799L26.6399 17.7399C24.9199 19.8899 23.1899 22.0299 21.4699 24.1799L19.0399 27.2099C18.4399 27.9599 17.57 29.5199 16.7899 29.8499L18.0499 29.5099C17.4599 29.5599 16.24 28.4499 15.6999 28.0699C14.8399 27.4699 14.0299 26.8099 13.2599 26.1099C11.6599 24.6499 10.2699 23.0099 9.17995 21.1299C8.08995 19.2499 7.38995 17.2199 7.14995 15.0999C7.02995 14.0199 7.01995 12.8899 7.14995 11.8099C7.24995 11.0599 7.40995 9.36994 7.97995 8.86994L6.87995 9.50994C5.87995 9.90994 5.58995 8.62994 6.04995 9.73994C6.27995 10.2899 6.44995 10.8699 6.63995 11.4299C7.01995 12.5599 7.37995 13.6999 7.72995 14.8399C8.39995 17.0499 9.02995 19.2799 9.69995 21.4899C11.0599 26.0299 12.6099 30.5399 14.8099 34.7499C16.0999 37.2199 20.3499 35.5199 19.3799 32.8199C17.7499 28.2999 17.0799 23.6499 17.3699 18.8599L12.7099 20.1199C14.9999 24.4499 16.7799 28.9799 18.0699 33.6999C18.9099 36.7999 23.7399 35.4799 22.8899 32.3699C21.4899 27.2399 19.5199 22.2899 17.0299 17.5899C15.7999 15.2699 12.5099 16.5199 12.3699 18.8499C12.0499 24.0299 12.7999 29.2599 14.5599 34.1399L19.1299 32.2099C16.4599 27.1099 14.9399 21.5599 13.3199 16.0699C12.5299 13.3599 11.7599 10.6099 10.7299 7.97994C10.1699 6.54994 9.27995 5.13994 7.73995 4.63994C6.19995 4.13994 4.45995 4.88994 3.62995 6.33994C2.29995 8.65994 1.95995 11.8399 2.11995 14.4499C2.28995 17.3599 3.08995 20.1599 4.40995 22.7499C6.74995 27.3399 10.8799 31.2699 15.3599 33.7699C17.0099 34.6899 18.8799 34.8199 20.3499 33.4599C21.5399 32.3599 22.4799 30.8599 23.4999 29.5899C25.7299 26.8099 27.9599 24.0299 30.1899 21.2599C31.0299 20.2099 31.2199 18.7499 30.1899 17.7199C29.2299 16.7599 27.6099 16.7599 26.6499 17.7199C22.8399 21.5099 19.3699 25.6199 16.2199 29.9699C15.5799 30.8599 15.8799 32.2699 16.6099 32.9999C17.4299 33.8199 18.6399 33.8899 19.6399 33.3899C27.3899 29.5499 34.79 25.0499 41.77 19.9399C43.9799 18.3199 42.75 14.6799 39.84 15.3699C34.99 16.5299 31.16 19.8899 28.1799 23.7599C24.9599 27.9399 22.7399 32.8299 19.3299 36.8699C17.8199 38.6599 19.1999 41.8199 21.7599 41.0499C27.7299 39.2599 33.2199 35.9599 37.5499 31.4699C41.88 26.9799 47.0299 19.9499 42.2799 14.2599C38.5099 9.74994 31.1699 10.1099 26.1899 11.9899C20.4299 14.1699 15.7199 18.5199 13.4199 24.2599C10.8299 30.7299 11.6799 38.4699 15.5399 44.2599L19.8599 41.7399C15.7099 35.7299 9.99995 30.7699 6.73995 24.1599C5.14995 20.9299 4.23995 17.3099 4.04995 13.7199C3.95995 11.8699 3.97995 9.95994 4.31995 8.13994C4.50995 7.11994 4.89995 5.18994 6.17995 4.97994C7.35995 4.78994 8.26995 7.29994 8.64995 8.07994C9.57995 10.0099 10.1299 12.1099 10.4599 14.2199C10.6699 15.5499 12.3399 16.2899 13.5399 15.9699C14.9599 15.5799 15.4999 14.2299 15.2899 12.8899L15.2799 12.9099Z" fill="#BA92EC"/>
</g>
</g>
<defs>
<clipPath id="clip0_175_1481">
<rect width="43" height="45" fill="white"/>
</clipPath>
<clipPath id="clip1_175_1481">
<rect width="47" height="47" fill="white" transform="translate(-2 -1)"/>
</clipPath>
</defs>
</svg>
