<svg width="84" height="87" viewBox="0 0 84 87" fill="none" xmlns="http://www.w3.org/2000/svg">
<g clip-path="url(#clip0_175_1495)">
<path d="M17.71 51.25C31.63 37.15 45.76 22.81 62.74 12.36C67.53 9.40997 72.52 6.79997 77.69 4.60997L74.66 0.679971C55.45 20.5 36.24 40.31 17.02 60.13C11.58 65.74 6.13999 71.35 0.699988 76.96L4.23999 80.5C21.75 62.25 39.41 43.79 59.98 28.9C65.76 24.72 71.75 20.84 77.96 17.34L74.93 13.41C60.6 31.48 44.81 48.32 28.74 64.84C24.22 69.48 19.68 74.1 15.14 78.72L18.68 82.26C33.28 67.16 49.32 53.46 66.57 41.46C71.48 38.05 76.48 34.78 81.57 31.64L78.54 27.71C65.6 41.32 53.03 55.28 40.86 69.57C37.43 73.6 34.02 77.66 30.65 81.74L34.19 85.28C43.42 73.51 54 62.81 65.68 53.47C68.99 50.82 72.4 48.31 75.88 45.89L72.85 41.96C64.49 49.86 56.87 58.48 49.99 67.68C48.52 69.64 51.45 72.57 53.41 71.1C61.61 64.95 69.8 58.8 78 52.65L74.58 49.23C70.3 56.34 64.8 62.57 58.32 67.76L61.86 71.3C62.92 70.31 63.99 69.31 65.05 68.32C67.41 66.12 63.87 62.59 61.51 64.78C60.45 65.77 59.38 66.77 58.32 67.76C57.33 68.68 57.39 70.36 58.32 71.3C59.36 72.34 60.8 72.15 61.86 71.3C68.65 65.87 74.42 59.21 78.9 51.76C80.11 49.75 77.55 46.78 75.48 48.34C67.28 54.49 59.09 60.64 50.89 66.79L54.31 70.21C60.94 61.35 68.35 53.1 76.39 45.5C78.41 43.59 75.73 39.93 73.36 41.57C60.77 50.29 49.18 60.44 38.95 71.84C36.08 75.04 33.31 78.35 30.66 81.73C29.83 82.79 29.62 84.23 30.66 85.27C31.55 86.16 33.33 86.32 34.2 85.27C46.16 70.79 58.51 56.64 71.24 42.84C74.83 38.95 78.45 35.08 82.1 31.24C84.01 29.23 81.55 25.78 79.07 27.31C60.9 38.52 43.81 51.5 28.14 66.01C23.7 70.12 19.38 74.36 15.17 78.71C12.93 81.02 16.44 84.55 18.71 82.25C34.87 65.81 51.05 49.36 66.11 31.9C70.34 27 74.47 22.02 78.49 16.95C79.26 15.97 79.52 14.72 78.69 13.67C77.91 12.69 76.57 12.4 75.46 13.03C53.03 25.67 33.86 43.15 15.85 61.36C10.76 66.51 5.73999 71.74 0.719988 76.96C-1.51001 79.28 2.00999 82.81 4.25999 80.5C23.47 60.68 42.68 40.87 61.9 21.05C67.34 15.44 72.78 9.82997 78.22 4.21997C79.08 3.32997 79.19 1.90997 78.42 0.939971C77.58 -0.120029 76.38 -0.200029 75.19 0.299971C56.5 8.19997 40.81 21.52 26.4 35.53C22.28 39.54 18.23 43.62 14.2 47.72C11.94 50.01 15.47 53.55 17.74 51.26L17.71 51.25Z" fill="#BA92EC"/>
</g>
<defs>
<clipPath id="clip0_175_1495">
<rect width="84" height="87" fill="white"/>
</clipPath>
</defs>
</svg>
