<svg width="88" height="94" viewBox="0 0 88 94" fill="none" xmlns="http://www.w3.org/2000/svg">
<g clip-path="url(#clip0_175_1491)">
<g clip-path="url(#clip1_175_1491)">
<path d="M4.25999 27.69C7.01999 25.28 8.96999 22.1 11.14 19.18C12.07 17.92 13.12 16.65 14.36 15.62C15.19 14.93 16.53 14.27 17.51 14.16C20.96 13.78 23.41 16.65 24.99 19.45C27.18 23.32 28.29 27.84 29.3 32.14C31.6 41.98 32.19 52.18 31.15 62.22C30.64 67.12 29.7 72.01 28.33 76.75C27.14 80.87 25.43 85.21 22.14 88.12C21.91 88.33 21.51 88.74 21.17 88.76C21.03 88.76 21.05 88.73 21.14 88.76C20.58 88.56 20.23 87.37 20.05 86.85C19.21 84.45 18.52 82 17.88 79.54C16.63 74.73 15.69 69.82 15.12 64.88C13.97 54.94 14.08 44.79 15.61 34.89C16.37 29.97 17.45 25.11 18.85 20.34C19.99 16.48 21.14 12.23 23.66 8.98996C24.64 7.73996 25.92 6.59996 27.46 6.16996C29.44 5.60996 31.52 6.14996 33.31 7.06996C36.62 8.75996 39.1 11.5 40.92 14.7C45.12 22.12 46.01 31.24 46.25 39.61C46.55 49.82 45.29 60.03 42.49 69.85C41.8 72.28 41.01 74.69 40.14 77.06L45.05 77.72C44.23 69.29 43.93 60.82 44.2 52.35C44.44 44.84 44.91 37.22 46.75 29.91C47.59 26.59 48.7 23.34 50.3 20.31C51.74 17.59 53.45 14.59 56.28 13.12C57.2 12.64 58.29 12.32 58.92 12.82C59.94 13.64 60.06 15.79 60.3 16.96C61.03 20.6 61.38 24.3 61.42 28.01C61.5 36.54 59.82 45.11 56.38 52.92L60.95 53.52C59.83 47.71 60.1 41.67 61.64 35.97C62.41 33.1 63.48 30.34 64.88 27.72C66.2 25.26 67.72 22.66 69.89 20.85C71.87 19.21 74.05 18.97 76.18 20.47C78.09 21.81 79.47 23.84 80.48 25.91C82.31 29.65 82.68 34.22 81.84 38.25C80.85 43.03 78.31 47.48 74.19 50.19C71.51 51.95 74.02 56.28 76.71 54.51C86.17 48.29 89.76 35.2 85.44 24.83C83.09 19.19 77.33 12.48 70.47 14.85C67.15 16 64.74 18.64 62.81 21.46C60.78 24.43 59.18 27.69 57.94 31.07C55.17 38.65 54.6 46.92 56.13 54.84C56.52 56.84 59.84 57.39 60.7 55.44C64.17 47.54 66.14 39.09 66.4 30.45C66.53 26.07 66.19 21.69 65.45 17.38C64.81 13.61 64.02 8.73996 59.6 7.74996C55.99 6.93996 52.18 9.24996 49.91 11.89C47.29 14.92 45.43 18.59 43.96 22.29C40.98 29.78 40.04 37.95 39.53 45.94C38.85 56.53 39.05 67.16 40.08 77.71C40.35 80.52 43.99 81.1 44.99 78.37C48.91 67.65 51.04 56.28 51.3 44.87C51.52 34.96 50.75 24.36 46.75 15.16C44.96 11.05 42.35 7.30996 38.77 4.57996C34.71 1.47996 29.34 -0.260038 24.48 1.96996C20.31 3.87996 17.92 8.22996 16.29 12.29C14.32 17.17 12.99 22.39 11.91 27.53C9.61999 38.44 8.86999 49.69 9.75999 60.81C10.21 66.44 11.05 72.05 12.3 77.55C12.9 80.2 13.6 82.82 14.39 85.42C15.1 87.76 15.75 90.38 17.53 92.17C22.23 96.9 27.72 90.1 29.9 86.21C32.45 81.67 33.77 76.47 34.79 71.4C37.04 60.22 37.24 48.74 35.47 37.48C34.63 32.13 33.37 26.76 31.5 21.66C29.98 17.51 27.73 13.3 23.94 10.81C20.38 8.45996 15.61 8.58996 12.14 11.05C8.66999 13.51 6.68999 16.93 4.31999 20.15C3.25999 21.59 2.10999 22.95 0.769991 24.12C-0.250009 25.01 -0.140009 26.75 0.769991 27.66C1.77999 28.67 3.28999 28.55 4.30999 27.66L4.25999 27.69Z" fill="#BA92EC"/>
</g>
</g>
<defs>
<clipPath id="clip0_175_1491">
<rect width="88" height="94" fill="white"/>
</clipPath>
<clipPath id="clip1_175_1491">
<rect width="88" height="94" fill="white"/>
</clipPath>
</defs>
</svg>
