<svg width="61" height="52" viewBox="0 0 61 52" fill="none" xmlns="http://www.w3.org/2000/svg">
<g clip-path="url(#clip0_404_895)">
<g clip-path="url(#clip1_404_895)">
<path d="M18.34 11.4856C18.85 14.4056 19.41 17.4556 18.99 20.4256C18.62 23.0756 17.31 25.3856 15.53 27.3356C11.51 31.7256 6.15999 35.0856 1.21999 38.3256L4.24999 42.2556C6.30999 39.8256 9.23999 38.8056 12.27 38.1056C15.58 37.3356 19.11 36.7156 22.51 37.1356C25.91 37.5556 28.61 39.4456 30.92 41.9056C33.42 44.5756 35.54 47.5856 37.51 50.6456C39.92 54.3856 42.09 58.2756 44.25 62.1556L48.57 59.6356C45.03 53.5856 42.62 46.7356 41.95 39.7356C41.41 34.1556 41.97 27.8356 46.36 23.8556C47.97 22.4056 46.71 19.5356 44.59 19.5856C39.63 19.7056 34.27 18.7856 30.33 15.5456C26.94 12.7556 24.7 8.18561 25.71 3.77561L20.89 2.44561C19.39 11.8856 18.81 21.4256 19.26 30.9756C19.4 33.8556 23.21 34.2856 24.17 31.6356C25.41 28.2056 26.65 24.7856 27.89 21.3556L22.98 20.6956C23.1 24.3756 23.22 28.0556 23.34 31.7356C23.42 34.2756 26.63 35.0556 28 32.9956C29.29 31.0456 30.59 29.1056 31.88 27.1556L27.22 25.8956C27.39 28.3756 27.48 30.8556 27.5 33.3456C27.52 35.9856 30.77 36.5356 32.16 34.6056C33.67 32.5056 35.04 30.3156 36.28 28.0456L31.62 26.7856C31.42 29.3156 31.23 31.8356 31.03 34.3656C30.8 37.2656 35.13 37.6256 35.94 35.0256C36.75 32.4256 37.55 29.8756 38.35 27.3056C38.43 27.0456 38.48 26.6756 38.62 26.4356C38.87 26.0356 38.62 26.4256 38.63 26.4156C39.03 26.1656 39.67 26.0656 40.12 25.9056C41.4 25.4556 42.68 24.9956 43.95 24.5156C49.02 22.6356 54.03 20.5956 58.99 18.4256C60.23 17.8856 60.51 16.0756 59.89 15.0056C59.14 13.7256 57.71 13.5656 56.47 14.1056C51.18 16.4256 45.81 18.5556 40.38 20.5156C39.03 21.0056 37.59 21.3856 36.29 22.0156C34.99 22.6456 34.26 23.7456 33.8 25.0956C32.83 27.9256 32.01 30.8256 31.12 33.6856L36.03 34.3456C36.23 31.8156 36.42 29.2956 36.62 26.7656C36.82 24.2356 33.1 23.3956 31.96 25.5056C30.72 27.7756 29.35 29.9656 27.84 32.0656L32.5 33.3256C32.48 30.8356 32.38 28.3556 32.22 25.8756C32.06 23.3956 28.96 22.5056 27.56 24.6156C26.27 26.5656 24.97 28.5056 23.68 30.4556L28.34 31.7156C28.22 28.0356 28.1 24.3556 27.98 20.6756C27.88 17.7756 24.02 17.3856 23.07 20.0156C21.83 23.4456 20.59 26.8656 19.35 30.2956L24.26 30.9556C23.83 21.8656 24.28 12.7456 25.71 3.75561C25.92 2.42561 25.37 1.06561 23.96 0.675612C22.7 0.325612 21.19 1.09561 20.88 2.42561C19.5 8.42561 21.91 14.7856 26.49 18.8156C31.43 23.1556 38.12 24.7256 44.57 24.5656L42.8 20.2956C37.56 25.0456 36.31 32.5956 36.89 39.3456C37.58 47.3656 40.16 55.1956 44.22 62.1356C45.85 64.9156 50.11 62.4256 48.54 59.6156C44.42 52.2156 40.25 44.5656 34.43 38.3456C31.7 35.4256 28.33 33.0956 24.33 32.3656C20.33 31.6356 15.95 32.1856 11.86 33.0456C7.76999 33.9056 3.48999 35.3856 0.689993 38.6956C-0.110007 39.6456 -0.320007 40.9556 0.489993 41.9756C1.22999 42.9056 2.65999 43.3156 3.71999 42.6156C6.72999 40.6356 9.67999 38.5756 12.56 36.4156C15.15 34.4656 17.76 32.4656 19.83 29.9456C21.9 27.4256 23.46 24.3656 23.91 20.9656C24.39 17.3356 23.78 13.7156 23.15 10.1456C22.92 8.81561 21.29 8.06561 20.07 8.39561C18.67 8.78561 18.09 10.1356 18.32 11.4756L18.34 11.4856Z" fill="#FFC875"/>
</g>
</g>
<defs>
<clipPath id="clip0_404_895">
<rect width="61" height="51.2111" fill="white" transform="translate(0 0.625732)"/>
</clipPath>
<clipPath id="clip1_404_895">
<rect width="60.22" height="62.75" fill="white" transform="translate(0 0.625732)"/>
</clipPath>
</defs>
</svg>
