<svg width="114" height="105" viewBox="0 0 114 105" fill="none" xmlns="http://www.w3.org/2000/svg">
<g clip-path="url(#clip0_175_1441)">
<g clip-path="url(#clip1_175_1441)">
<path d="M19.09 17.7C11.02 27.59 2.31001 38.4 0.380014 51.43C-1.54999 64.46 3.40001 75.94 11.85 84.93C20.77 94.42 33.35 99.65 46 101.86C58.65 104.07 73.2 104.61 85.31 99.11C97.42 93.61 104.78 82.22 109.45 70.59C114.36 58.39 115.65 44.36 110.74 31.94C106.49 21.2 98.49 12.07 88.4 6.42002C77.31 0.210017 64.14 -1.34998 51.75 1.11002C45.48 2.35002 39.38 4.69002 33.88 7.95002C27.94 11.47 22.51 15.98 17.47 20.68C15.05 22.94 12.85 25.46 11.53 28.53C10.13 31.79 9.70001 35.31 9.23001 38.8C8.21001 46.33 7.57001 53.91 7.34001 61.51C7.23001 65.28 7.22001 69.05 7.31001 72.82C7.38001 76.03 12.3 76.05 12.31 72.82C12.36 59.36 12.41 45.9 12.46 32.43L7.55001 33.09C9.71001 48.38 11.87 63.66 14.02 78.95C14.19 80.16 15.67 80.9 16.76 80.74C17.95 80.56 18.96 79.55 18.93 78.28C18.55 61.65 18.17 45.03 17.79 28.4C17.72 25.19 12.82 25.17 12.79 28.4C12.64 46.45 14.75 64.5 19.04 82.03C19.7 84.72 24.15 84.22 23.95 81.37C22.62 62 21.3 42.62 19.97 23.25L15.06 23.91C17.51 42 19.95 60.09 22.4 78.18L24.47 93.47C24.63 94.68 26.13 95.42 27.21 95.26C28.51 95.06 29.26 94.08 29.38 92.8C31.03 75.6 30.13 58.31 28.64 41.13C28.21 36.21 27.74 31.3 27.26 26.39L22.35 27.05C25.14 47.6 27.92 68.16 30.73 88.71C31.35 93.23 32.41 97.66 36.26 100.5C37.75 101.6 40.16 100.13 40.02 98.34C38.36 77.16 36.71 55.98 35.05 34.8C34.58 28.84 34.12 22.89 33.65 16.93H28.65C31.59 39.15 35.22 61.27 39.56 83.26C40.78 89.44 42.06 95.62 43.39 101.78C43.98 104.5 48.52 103.95 48.3 101.12C46.54 78 43.95 54.95 40.55 32.02C39.59 25.53 38.56 19.05 37.47 12.58L32.65 13.91C39.03 35.25 39.89 57.67 44.62 79.35C45.94 85.41 47.59 91.41 49.71 97.24C50.83 100.31 55 99.07 54.53 95.91C51.09 73.02 48.2 50.04 45.85 27.01C45.18 20.46 44.56 13.91 43.98 7.35002L39.07 8.01002C43.11 30.83 47.15 53.65 51.19 76.47L54.62 95.86C55.12 98.66 59.6 97.98 59.53 95.2C59 72.29 55.86 49.55 52.17 26.96C51.13 20.63 50.05 14.31 48.97 7.99002L44.15 9.32002C50.55 30.79 52.33 53.32 58.69 74.8C60.51 80.94 62.73 86.95 65.44 92.74C66.52 95.06 70.11 93.82 70.1 91.48C70.06 80.84 67.87 70.31 66.08 59.86C64.29 49.41 62.49 38.97 60.7 28.53C59.68 22.57 58.66 16.62 57.63 10.66C57.4 9.33002 55.76 8.58002 54.55 8.91002C53.14 9.30002 52.58 10.65 52.8 11.99C56.21 32.5 60.57 52.84 65.87 72.94C67.36 78.59 68.93 84.23 70.57 89.84C70.92 91.03 72.09 91.82 73.31 91.63C74.42 91.46 75.63 90.42 75.48 89.17C74.15 77.99 72.82 66.81 71.5 55.63C70.18 44.45 69.17 33.52 67.39 22.58C66.44 16.75 65.09 10.99 62.87 5.50002C61.93 3.19002 58.96 3.09002 58.05 5.50002C56.95 8.41002 57.32 11.53 57.86 14.52C58.4 17.51 59.03 20.57 59.63 23.59C60.89 29.95 62.21 36.3 63.56 42.64C66.26 55.24 69.15 67.79 72.22 80.31C73.94 87.32 75.73 94.32 77.57 101.3L82.14 99.37C77.47 91.4 72.45 83.64 67.11 76.1C65.65 74.04 62.66 74.82 62.45 77.36C61.96 83.43 61.83 89.52 62.07 95.61L66.98 94.95C65.83 88.88 63.84 83.03 61.14 77.47C59.99 75.1 56.59 76.44 56.48 78.73C56.28 82.76 56.79 86.88 58.03 90.73C58.64 92.61 59.41 94.46 60.33 96.21C61.25 97.96 62.65 99.62 64.78 99.64C69.22 99.67 69.74 93.62 70.56 90.45C71.69 86.09 72.82 81.74 73.95 77.38L69.38 77.98C72.01 83.1 74.64 88.22 77.27 93.34C78.38 95.5 82.11 94.54 81.93 92.08C81.07 80.67 79.54 69.31 77.3 58.09C76.19 52.51 74.9 46.96 73.45 41.46C72 35.96 70.25 30.63 68.83 25.17C67.3 19.3 66.25 13.14 67.5 7.12002H62.68C66.9 17.31 68.42 28.47 70.49 39.23C72.67 50.52 74.85 61.81 77.03 73.1C78.27 79.52 79.51 85.93 80.75 92.35C81.03 93.82 83.18 94.78 84.42 93.84C89.25 90.23 88.08 84.05 87.43 78.83C86.63 72.35 85.71 65.89 84.66 59.45C82.56 46.53 79.95 33.69 76.84 20.98C76.11 18 75 14.77 74.63 11.84C74.51 10.85 74.49 9.57002 74.66 8.83002C74.81 8.21002 74.83 8.08002 75.14 7.65002C74.96 7.90002 75.22 7.57002 75.25 7.55002C75.38 7.43002 75.55 7.33002 75.54 7.33002L72.46 5.58002C75.58 27.56 79.36 49.45 83.8 71.21C85.06 77.39 86.38 83.56 87.75 89.72C88.38 92.54 92.59 91.81 92.66 89.06C93.18 69.12 91.61 49.14 88.02 29.52C87 23.96 85.81 18.42 84.47 12.93L79.65 14.26C83.89 30.39 88.12 46.52 92.36 62.65L95.96 76.37C96.7 79.18 100.73 78.46 100.87 75.71C101.75 58.81 98.38 42.04 94.1 25.78C92.87 21.12 91.57 16.48 90.26 11.84C89.39 8.73002 84.72 10.04 85.44 13.17C89.26 29.86 92.97 46.59 96.91 63.25C97.95 67.62 99.21 71.93 101.32 75.92C102.45 78.06 106.15 77.14 105.98 74.66C104.61 55.26 101.64 35.98 97.1 17.08C96.35 13.95 91.55 15.28 92.28 18.41C95.65 32.92 99.06 47.49 104.61 61.36C105.07 62.51 106.03 63.35 107.35 63.15C108.47 62.98 109.65 61.95 109.52 60.69C108.16 47.94 105.89 35.31 102.68 22.9C101.87 19.78 97.09 21.1 97.86 24.23C99.55 31.08 102.46 37.61 106.43 43.44C107.19 44.55 108.63 45.05 109.85 44.34C110.95 43.69 111.51 42.04 110.75 40.92C106.99 35.42 104.28 29.37 102.68 22.9L97.86 24.23C100.96 36.21 103.21 48.39 104.52 60.69L109.43 60.03C103.88 46.16 100.47 31.59 97.1 17.08L92.28 18.41C96.72 36.89 99.64 55.7 100.99 74.66L105.65 73.4C103.89 70.07 102.85 66.45 101.96 62.8C100.99 58.8 100.11 54.77 99.19 50.76C97.3 42.49 95.4 34.22 93.51 25.95C92.43 21.25 91.36 16.55 90.28 11.84L85.46 13.17C89.93 29.04 94.48 45.09 95.71 61.61C96.06 66.31 96.13 71.01 95.88 75.72L100.79 75.06C96.55 58.93 92.32 42.8 88.08 26.67C86.88 22.1 85.68 17.52 84.48 12.95C83.66 9.84002 78.89 11.15 79.66 14.28C84.32 33.31 87 52.77 87.63 72.35C87.81 77.92 87.82 83.5 87.67 89.08L92.58 88.42C87.77 66.74 83.6 44.92 80.11 23C79.12 16.77 78.18 10.53 77.29 4.28002C77.11 3.03002 75.36 2.09002 74.21 2.53002C69.19 4.51002 69.04 10.14 70.08 14.7C71.54 21.04 73.24 27.32 74.64 33.67C77.49 46.61 79.82 59.67 81.63 72.8C82.11 76.32 82.62 79.86 82.95 83.39C83.12 85.14 83.5 88.34 81.88 89.55L85.55 91.04C81.2 68.49 77.04 45.9 72.48 23.39C71.27 17.41 69.83 11.46 67.49 5.80002C67.06 4.76002 66.28 3.96002 65.08 3.96002C64.03 3.96002 62.89 4.73002 62.67 5.80002C60.29 17.27 64.63 28.42 67.67 39.32C70.71 50.22 73.13 61.59 74.81 72.93C75.75 79.29 76.44 85.68 76.92 92.09L81.58 90.83C78.95 85.71 76.32 80.59 73.69 75.47C72.7 73.54 69.64 74.05 69.12 76.07C68.24 79.46 67.36 82.85 66.49 86.23C66.03 88 65.57 89.78 65.11 91.55C64.9 92.36 64.71 93.17 64.48 93.97C64.43 94.14 64.32 94.41 64.3 94.59C64.26 95.05 63.99 94.69 64.37 94.77C64.44 94.78 65.28 94.65 65.26 94.72C65.27 94.67 65 94.34 64.94 94.23C64.54 93.55 64.2 92.82 63.87 92.1C63.27 90.75 62.8 89.34 62.42 87.92C61.61 84.91 61.33 81.85 61.48 78.74L56.82 80C59.33 85.17 61.08 90.65 62.15 96.29C62.68 99.06 67.17 98.42 67.06 95.63C66.82 89.54 66.94 83.45 67.44 77.38L62.78 78.64C68.12 86.18 73.14 93.94 77.81 101.91C79.25 104.36 83.1 102.74 82.38 99.98C75.96 75.62 70.25 51.07 65.26 26.38C64.56 22.92 63.88 19.46 63.21 16C62.63 13 61.74 9.83002 62.87 6.85002H58.05C61.96 16.5 63.08 26.9 64.3 37.15C65.62 48.25 66.94 59.35 68.25 70.45C68.99 76.7 69.73 82.95 70.48 89.19L75.39 88.53C69.56 68.58 64.66 48.35 60.72 27.94C59.61 22.2 58.58 16.44 57.62 10.68L52.8 12.01C56.35 32.71 60.1 53.39 63.44 74.12C64.37 79.87 65.07 85.66 65.09 91.5L69.75 90.24C60.34 70.1 57.93 47.66 53.45 26.13C52.18 20.04 50.75 13.98 48.97 8.01002C48.03 4.87002 43.61 6.22002 44.15 9.34002C47.94 31.47 51.73 53.64 53.53 76.04C54.04 82.42 54.39 88.82 54.54 95.22L59.45 94.56C55.41 71.74 51.37 48.92 47.33 26.1C46.19 19.64 45.04 13.18 43.9 6.71002C43.41 3.96002 38.74 4.56002 38.99 7.37002C41.07 30.79 43.71 54.17 46.89 77.47C47.79 84.08 48.74 90.67 49.73 97.27L54.55 95.94C46.94 74.98 45.79 52.53 41.77 30.77C40.64 24.65 39.27 18.57 37.49 12.61C37.1 11.32 35.74 10.5 34.41 10.86C33 11.25 32.44 12.6 32.66 13.94C36.45 36.44 39.45 59.07 41.64 81.79C42.26 88.24 42.82 94.69 43.31 101.15L48.22 100.49C43.55 78.88 39.55 57.13 36.25 35.27C35.33 29.18 34.46 23.08 33.65 16.97C33.47 15.63 32.63 14.47 31.15 14.47C29.88 14.47 28.54 15.62 28.65 16.97C30.31 38.15 31.96 59.33 33.62 80.51C34.09 86.47 34.55 92.42 35.02 98.38L38.78 96.22C36.18 94.31 35.91 90.08 35.51 87.17C34.83 82.22 34.16 77.27 33.49 72.31C32.14 62.41 30.8 52.5 29.45 42.6C28.69 36.99 27.92 31.37 27.16 25.76C26.78 23 21.98 23.62 22.25 26.42C23.91 43.59 25.58 60.82 25.22 78.09C25.12 83.01 24.84 87.93 24.37 92.83L29.28 92.17C26.83 74.08 24.39 55.99 21.94 37.9L19.87 22.61C19.49 19.83 14.77 20.47 14.96 23.27C16.29 42.64 17.61 62.02 18.94 81.39L23.85 80.73C19.66 63.61 17.63 46.05 17.78 28.43H12.78C13.16 45.06 13.54 61.68 13.92 78.31L18.83 77.65C16.67 62.36 14.51 47.08 12.36 31.79C12.19 30.58 10.71 29.84 9.62001 30C8.40001 30.18 7.46001 31.19 7.45001 32.46C7.40001 45.92 7.35001 59.38 7.30001 72.85H12.3C12.14 65.64 12.33 58.42 12.89 51.23C13.16 47.72 13.53 44.21 13.97 40.71C14.37 37.56 14.73 34.31 15.78 31.3C16.76 28.46 18.84 26.25 20.99 24.24C23.37 22.02 25.86 19.89 28.41 17.86C33.13 14.08 38.31 10.76 43.97 8.58002C54.96 4.35002 67.29 3.73002 78.51 7.49002C88.43 10.82 97.07 17.81 102.55 26.71C108.66 36.62 110.16 48.28 107.65 59.59C105.14 70.9 99.23 82.69 90.15 90.25C80.69 98.13 67.8 98.99 56.03 98.12C43.89 97.23 31.59 94.07 21.59 86.9C12.95 80.71 6.09001 70.72 5.08001 59.97C3.95001 47.92 10.27 37.24 17.28 27.98C19.01 25.7 20.82 23.47 22.63 21.26C23.48 20.21 23.65 18.75 22.63 17.72C21.75 16.84 19.95 16.67 19.09 17.72V17.7Z" fill="#FFC875"/>
<path d="M29.33 76.58C36.27 84.14 46.45 88.86 56.76 88.82C68.11 88.78 78.04 82.23 85.24 73.83C89.32 69.07 92.4 61.71 88.08 56.04C87.4 55.14 86.42 54.57 85.26 54.89C84.22 55.18 83.4 56.21 83.42 57.3C83.58 65.15 78.21 72 71.48 75.54C63.39 79.8 53.38 79.78 44.58 78.18C39.93 77.34 35.24 75.88 31.8 72.49C29.51 70.23 25.97 73.76 28.26 76.03C31.81 79.53 36.47 81.52 41.27 82.61C46.33 83.76 51.66 84.27 56.85 84.09C67.04 83.73 77.09 80.14 83.44 71.83C86.62 67.67 88.52 62.58 88.42 57.31L83.76 58.57C86.72 62.46 84.36 67.23 81.56 70.46C78.33 74.18 74.52 77.59 70.26 80.08C62.41 84.67 53.15 84.82 44.81 81.43C40.25 79.58 36.17 76.66 32.86 73.04C30.68 70.66 27.15 74.21 29.32 76.58H29.33Z" fill="#E26901"/>
<path d="M39.15 39.3701C39.61 41.6101 40.7 43.6201 42.19 45.3401C43.49 46.8401 45.82 45.9001 46.37 44.2401C47.12 41.9801 46.64 39.4901 45.99 37.2601C45.34 35.0301 44.42 32.9501 43.21 31.0301C42.34 29.6501 40.91 28.5601 39.18 29.1301C37.77 29.5901 36.83 30.7801 36.56 32.2301C36.13 34.5201 36.11 36.9101 36.39 39.2101C36.67 41.5101 37.21 44.0201 38.27 46.2101C39.42 48.5801 42.12 50 44.63 48.85C46.77 47.8701 47.32 45.3301 47.27 43.2001C47.22 41.0701 46.85 38.9101 46.12 36.9001C45.26 34.5201 44.02 32.3201 42.36 30.4101C41.02 28.8701 38.63 28.9801 37.61 30.8501C36.83 32.2801 36.97 34.1801 37.27 35.7201C37.52 37.0101 39.13 37.8601 40.35 37.4701C41.72 37.0301 42.37 35.7701 42.1 34.3901C42.08 34.3101 42.04 33.9701 42.07 34.2301C42.05 34.0001 42.05 33.7701 42.05 33.5401C42.05 33.4801 42.09 33.0401 42.07 33.1801C42.06 33.2801 42.07 33.2601 42.09 33.1001C42.18 32.7401 42.08 32.9001 41.78 33.5901L40.01 34.3201L40.18 34.3001L38.92 33.9601C38.47 33.7201 38.67 33.7301 38.82 33.9401C38.92 34.0701 39.04 34.2001 39.14 34.3301C38.9 34.0301 39.45 34.7701 39.5 34.8301C39.88 35.3801 40.23 35.9501 40.54 36.5401C40.7 36.8401 40.84 37.1401 40.99 37.4401C41.01 37.4901 41.19 37.8801 41.04 37.5301C41.11 37.6801 41.17 37.8401 41.22 38.0001C41.46 38.6201 41.66 39.2601 41.82 39.9101C41.9 40.2301 41.98 40.5601 42.04 40.8901C42.07 41.0501 42.1 41.2201 42.13 41.3801C42.14 41.4501 42.2 41.8701 42.15 41.4601C42.24 42.1201 42.28 42.7901 42.28 43.4601C42.28 43.7501 42.27 44.0301 42.25 44.3101C42.28 43.7901 42.19 44.3501 42.17 44.5401C42.14 44.8901 42.34 44.1801 42.21 44.4901C42.15 44.6301 41.91 44.7801 42.15 44.6301C42.19 44.6001 42.64 44.2501 42.37 44.4101C42.17 44.5301 42.71 44.3101 42.76 44.2901C43.11 44.1901 42.89 44.5301 42.8 44.2601L42.9 44.3001C43.07 44.3701 43.04 44.3401 42.82 44.2201L42.91 44.2801C43.06 44.3901 43.03 44.3501 42.84 44.1701C42.86 44.2101 43.04 44.4501 42.88 44.2101C42.8 44.0801 42.72 43.9401 42.65 43.8001C42.62 43.7401 42.43 43.3001 42.53 43.5601C42.63 43.8201 42.45 43.3301 42.44 43.2901C42.36 43.0701 42.29 42.8501 42.21 42.6301C42 41.9701 41.81 41.3001 41.66 40.6201C41.58 40.2601 41.51 39.8901 41.44 39.5301C41.42 39.3901 41.39 39.2601 41.37 39.1201C41.24 38.2501 41.4 39.5601 41.32 38.6801C41.18 37.2001 41.16 35.7101 41.3 34.2301C41.32 34.0501 41.34 33.8601 41.36 33.6801C41.32 33.9201 41.36 33.7301 41.36 33.6801C41.38 33.5401 41.44 33.4001 41.44 33.2601L41.47 33.1601C41.42 33.3401 41.31 33.4901 41.14 33.5901L40.91 33.8101C39.03 32.8701 38.33 32.7601 38.82 33.4601C38.88 33.5801 38.97 33.6901 39.03 33.8001C39.26 34.1801 39.49 34.5701 39.7 34.9701C40.42 36.3201 40.84 37.3801 41.28 38.9901C41.39 39.3801 41.48 39.7701 41.57 40.1701C41.61 40.3401 41.64 40.5101 41.67 40.6801L41.71 40.9401C41.69 40.7501 41.69 40.7401 41.71 40.9201C41.75 41.3101 41.75 41.6901 41.75 42.0801C41.75 42.1501 41.68 42.5601 41.75 42.1801C41.7 42.4301 41.63 42.6801 41.55 42.9201L45.73 41.8201C45.73 41.8201 45.33 41.3301 45.45 41.4901C45.59 41.6801 45.24 41.1801 45.21 41.1301C44.98 40.7801 44.78 40.4201 44.59 40.0501C44.53 39.9301 44.43 39.7201 44.54 39.9601C44.46 39.7701 44.39 39.5701 44.32 39.3701C44.17 38.9301 44.06 38.4901 43.97 38.0401C43.71 36.7601 42.12 35.9001 40.89 36.2901C39.53 36.7301 38.86 37.9901 39.14 39.3701H39.15Z" fill="#E26901"/>
<path d="M64.3301 33.41C64.7601 34.88 65.2401 36.32 65.7801 37.75C66.4101 39.4 67.0301 41.39 68.9901 41.85C72.7101 42.72 74.7901 38.58 74.7101 35.5C74.6301 32.7 73.6801 29.81 72.4201 27.34C71.1601 24.87 67.7701 20.05 64.5901 23.02C63.3701 24.16 63.4301 26.33 63.3201 27.86C63.2101 29.39 63.2101 30.94 63.3301 32.47C63.4601 34.12 63.6901 35.78 64.0401 37.4C64.3501 38.82 64.7201 40.24 65.6301 41.41C66.6601 42.75 68.3301 43.5 70.0101 43.01C71.6901 42.52 72.6801 41.06 73.2901 39.51C74.3401 36.82 74.3601 33.8 73.7301 31C73.3901 29.46 72.7901 27.96 72.0601 26.57C71.3301 25.18 70.4201 23.52 69.0401 22.77C66.8101 21.56 64.1801 23.17 63.7001 25.53C63.3201 27.41 63.6601 29.5 64.0601 31.35C64.3401 32.63 65.9001 33.5 67.1401 33.1C68.4901 32.66 69.1801 31.4 68.8901 30.02C68.6701 29 68.5601 28.25 68.5601 27.11C68.5601 27.04 68.5801 26.59 68.5701 26.58C68.6801 26.64 68.3701 26.96 68.3501 26.98C67.8101 27.48 66.9901 27.38 66.3701 26.93C66.5601 27.14 66.5701 27.14 66.4001 26.92C66.5001 27.06 66.6001 27.2 66.6901 27.33C67.1701 28.03 67.6001 28.77 67.9701 29.54C67.9401 29.47 68.2901 30.24 68.1601 29.94C68.0301 29.64 68.3501 30.43 68.3201 30.36C68.5001 30.84 68.6501 31.33 68.7801 31.82C68.8901 32.23 68.9701 32.65 69.0501 33.06C69.2001 33.84 69.0401 32.61 69.0901 33.4C69.1001 33.57 69.1201 33.73 69.1301 33.9C69.1501 34.32 69.1601 34.74 69.1301 35.16C69.1201 35.41 69.1001 35.66 69.0701 35.91C69.1201 35.44 69.0201 36.21 69.0101 36.24C68.9301 36.65 68.8301 37.06 68.7001 37.46C68.6201 37.7 68.5501 37.95 68.4401 38.17C68.6501 37.7 68.4301 38.14 68.3601 38.25C68.2501 38.43 67.9801 38.6 68.3101 38.34C67.8701 38.68 68.4901 38.23 68.5601 38.21C68.7301 38.15 68.9501 38.14 69.1201 38.17C69.3001 38.2 69.4601 38.28 69.5901 38.42C69.4301 38.25 69.4101 38.23 69.5301 38.37C69.5701 38.65 69.4401 38.19 69.3901 38.1C69.0601 37.57 69.4701 38.51 69.3101 37.91C69.2001 37.49 69.0701 37.07 68.9701 36.65C68.7501 35.71 68.5201 34.52 68.4301 33.8C68.1801 31.73 68.1401 29.64 68.3101 27.56C68.3301 27.26 68.3601 26.97 68.4001 26.67C68.4601 26.14 68.4401 26.33 68.4201 26.45L68.4601 26.16C68.6901 25.14 67.8801 25.4 66.0301 26.94C65.9401 26.71 65.9201 26.82 66.0701 26.97C66.3301 27.23 66.7901 27.77 66.8901 27.91C67.0201 28.08 67.4301 28.71 67.6301 29.07C68.5601 30.67 69.0201 32.02 69.4601 33.98C69.5001 34.14 69.5301 34.3 69.5601 34.46C69.5901 34.61 69.6201 34.76 69.6401 34.91C69.6101 34.63 69.6001 34.64 69.6401 34.94C69.6701 35.4 69.6801 35.86 69.6601 36.32C69.6601 36.21 69.7701 35.85 69.6601 36.32C69.6301 36.46 69.3101 37.23 69.5701 36.75C69.5001 36.88 69.4301 37 69.3601 37.12C69.5401 36.9 69.5301 36.9 69.3401 37.12C69.5601 36.98 69.5401 36.99 69.2801 37.15C70.0301 36.96 70.3201 36.72 71.1101 37.69C70.9801 37.43 70.9601 37.43 71.0701 37.69C71.0001 37.51 70.9201 37.32 70.8501 37.14C70.6501 36.64 70.4601 36.13 70.2801 35.62C69.8601 34.46 69.4801 33.29 69.1401 32.11C68.7701 30.86 67.3601 29.94 66.0601 30.36C64.7601 30.78 63.9201 32.09 64.3101 33.44L64.3301 33.41Z" fill="#E26901"/>
</g>
</g>
<defs>
<clipPath id="clip0_175_1441">
<rect width="114" height="105" fill="white"/>
</clipPath>
<clipPath id="clip1_175_1441">
<rect width="113.84" height="104.08" fill="white"/>
</clipPath>
</defs>
</svg>
