<svg width="45" height="49" viewBox="0 0 45 49" fill="none" xmlns="http://www.w3.org/2000/svg">
<g clip-path="url(#clip0_175_1571)">
<g clip-path="url(#clip1_175_1571)">
<path d="M19.26 30.62C20.32 22.87 21.63 15.15 23.18 7.47995L18.61 8.07995C23.35 16.84 32.16 22.28 41.07 26.08L39.83 23.92C39.9 23.14 40.19 23.48 39.8 23.5C39.29 23.52 38.7 23.78 38.17 23.85C36.46 24.07 34.74 24.25 33.02 24.42C29.67 24.75 26.31 25.02 22.94 25.22C16.13 25.62 9.31001 25.73 2.49001 25.58L3.75001 30.24C9.55001 25.76 15.34 21.29 21.14 16.81C24.04 14.57 26.94 12.33 29.83 10.1C32.27 8.20995 34.75 5.98995 37.7 4.95995L34.88 1.28995C25.82 14.84 17.39 28.7999 9.63002 43.1399L14.2 45.07C16.69 36.8899 19.18 28.71 21.66 20.53C22.6 17.44 17.77 16.13 16.84 19.2C14.35 27.38 11.86 35.56 9.38002 43.74C8.56002 46.43 12.59 48.1699 13.95 45.6699C21.71 31.3399 30.14 17.37 39.2 3.81995C40.38 2.04995 38.41 -0.560048 36.38 0.149952C33.17 1.26995 30.57 3.27995 27.91 5.33995C24.95 7.62995 21.98 9.91995 19.02 12.21C13.09 16.79 7.17001 21.37 1.24001 25.94C0.350015 26.63 -0.229985 27.59 0.0900149 28.76C0.390015 29.83 1.40001 30.57 2.50001 30.6C10.31 30.78 18.12 30.6 25.91 30.05C29.76 29.78 33.61 29.42 37.45 28.96C40.72 28.58 44.5 27.92 44.84 23.94C44.91 23.16 44.33 22.09 43.6 21.78C35.47 18.31 27.27 13.6 22.94 5.56995C21.96 3.74995 18.8 4.04995 18.37 6.16995C16.82 13.84 15.52 21.56 14.45 29.31C14.27 30.65 14.77 31.99 16.2 32.3899C17.37 32.7099 19.09 31.99 19.28 30.64L19.26 30.62Z" fill="#FFC875"/>
</g>
</g>
<defs>
<clipPath id="clip0_175_1571">
<rect width="45" height="49" fill="white"/>
</clipPath>
<clipPath id="clip1_175_1571">
<rect width="44.84" height="48.99" fill="white"/>
</clipPath>
</defs>
</svg>
