<svg width="38" height="49" viewBox="0 0 38 49" fill="none" xmlns="http://www.w3.org/2000/svg">
<g clip-path="url(#clip0_175_1591)">
<g clip-path="url(#clip1_175_1591)">
<path d="M15.32 20.14L14.14 13.14L13.57 9.76L13.29 8.07L13.13 7.1C13.08 6.83 13.02 6.95 12.98 7.46L12.08 8.36L12.36 8.21L11.1 8.55C12.03 8.45 13.04 8.7 13.96 8.81C14.94 8.93 15.91 9.05 16.89 9.17C18.93 9.42 20.96 9.67 23 9.91C27.07 10.41 31.14 10.9 35.22 11.4L34.56 6.49C23.31 10.22 11.83 14.09 2.22999 21.23L5.25999 25.16C9.17999 21.64 12.91 17.9 16.4 13.95C19.03 10.98 21.68 6.48 25.94 5.85L22.86 2.77C20.19 9.75 17.88 16.86 15.98 24.09C15.05 27.62 14.2 31.19 13.48 34.77C12.71 38.57 12.14 42.45 12.48 46.33C12.76 49.53 17.23 49.56 17.48 46.33C18.04 39.16 17.35 31.92 15.5 24.98C14.67 21.87 9.84999 23.19 10.68 26.31C12.43 32.86 13.01 39.58 12.48 46.33H17.48C17.16 42.71 17.67 39.17 18.4 35.63C19.13 32.09 19.99 28.49 20.93 24.96C22.81 17.89 25.07 10.93 27.68 4.1C28.44 2.11 26.27 0.780002 24.6 1.02C19.63 1.75 16.53 6.19 13.47 9.7C9.79999 13.91 5.86999 17.88 1.71999 21.61C-0.350015 23.47 2.44999 27.25 4.74999 25.54C14.03 18.64 25.01 14.91 35.86 11.3C38.67 10.36 37.93 6.72 35.2 6.39C27.87 5.5 20.54 4.61 13.21 3.72C11.41 3.5 9.53998 3.33 8.48998 5.16C7.60998 6.68 8.34999 8.76 8.61999 10.36L10.49 21.47C10.71 22.8 12.36 23.55 13.57 23.22C14.98 22.83 15.54 21.48 15.32 20.14Z" fill="#FFC875"/>
</g>
</g>
<defs>
<clipPath id="clip0_175_1591">
<rect width="38" height="49" fill="white"/>
</clipPath>
<clipPath id="clip1_175_1591">
<rect width="38" height="49" fill="white"/>
</clipPath>
</defs>
</svg>
