<svg width="61" height="63" viewBox="0 0 61 63" fill="none" xmlns="http://www.w3.org/2000/svg">
<g clip-path="url(#clip0_175_1551)">
<g clip-path="url(#clip1_175_1551)">
<path d="M18.34 10.86C18.85 13.78 19.41 16.83 18.99 19.8C18.62 22.45 17.31 24.76 15.53 26.71C11.51 31.1 6.15999 34.46 1.21999 37.7L4.24999 41.63C6.30999 39.2 9.23999 38.18 12.27 37.48C15.58 36.71 19.11 36.09 22.51 36.51C25.91 36.93 28.61 38.82 30.92 41.28C33.42 43.95 35.54 46.96 37.51 50.02C39.92 53.76 42.09 57.65 44.25 61.53L48.57 59.01C45.03 52.96 42.62 46.11 41.95 39.11C41.41 33.53 41.97 27.21 46.36 23.23C47.97 21.78 46.71 18.91 44.59 18.96C39.63 19.08 34.27 18.16 30.33 14.92C26.94 12.13 24.7 7.56 25.71 3.15L20.89 1.82C19.39 11.26 18.81 20.8 19.26 30.35C19.4 33.23 23.21 33.66 24.17 31.01C25.41 27.58 26.65 24.16 27.89 20.73L22.98 20.07C23.1 23.75 23.22 27.43 23.34 31.11C23.42 33.65 26.63 34.43 28 32.37C29.29 30.42 30.59 28.48 31.88 26.53L27.22 25.27C27.39 27.75 27.48 30.23 27.5 32.72C27.52 35.36 30.77 35.91 32.16 33.98C33.67 31.88 35.04 29.69 36.28 27.42L31.62 26.16C31.42 28.69 31.23 31.21 31.03 33.74C30.8 36.64 35.13 37 35.94 34.4C36.75 31.8 37.55 29.25 38.35 26.68C38.43 26.42 38.48 26.05 38.62 25.81C38.87 25.41 38.62 25.8 38.63 25.79C39.03 25.54 39.67 25.44 40.12 25.28C41.4 24.83 42.68 24.37 43.95 23.89C49.02 22.01 54.03 19.97 58.99 17.8C60.23 17.26 60.51 15.45 59.89 14.38C59.14 13.1 57.71 12.94 56.47 13.48C51.18 15.8 45.81 17.93 40.38 19.89C39.03 20.38 37.59 20.76 36.29 21.39C34.99 22.02 34.26 23.12 33.8 24.47C32.83 27.3 32.01 30.2 31.12 33.06L36.03 33.72C36.23 31.19 36.42 28.67 36.62 26.14C36.82 23.61 33.1 22.77 31.96 24.88C30.72 27.15 29.35 29.34 27.84 31.44L32.5 32.7C32.48 30.21 32.38 27.73 32.22 25.25C32.06 22.77 28.96 21.88 27.56 23.99C26.27 25.94 24.97 27.88 23.68 29.83L28.34 31.09C28.22 27.41 28.1 23.73 27.98 20.05C27.88 17.15 24.02 16.76 23.07 19.39C21.83 22.82 20.59 26.24 19.35 29.67L24.26 30.33C23.83 21.24 24.28 12.12 25.71 3.13C25.92 1.8 25.37 0.440002 23.96 0.0500017C22.7 -0.299998 21.19 0.470002 20.88 1.8C19.5 7.8 21.91 14.16 26.49 18.19C31.43 22.53 38.12 24.1 44.57 23.94L42.8 19.67C37.56 24.42 36.31 31.97 36.89 38.72C37.58 46.74 40.16 54.57 44.22 61.51C45.85 64.29 50.11 61.8 48.54 58.99C44.42 51.59 40.25 43.94 34.43 37.72C31.7 34.8 28.33 32.47 24.33 31.74C20.33 31.01 15.95 31.56 11.86 32.42C7.76999 33.28 3.48999 34.76 0.689993 38.07C-0.110007 39.02 -0.320007 40.33 0.489993 41.35C1.22999 42.28 2.65999 42.69 3.71999 41.99C6.72999 40.01 9.67999 37.95 12.56 35.79C15.15 33.84 17.76 31.84 19.83 29.32C21.9 26.8 23.46 23.74 23.91 20.34C24.39 16.71 23.78 13.09 23.15 9.52C22.92 8.19 21.29 7.44 20.07 7.77C18.67 8.16 18.09 9.51 18.32 10.85L18.34 10.86Z" fill="#FFC875"/>
</g>
</g>
<defs>
<clipPath id="clip0_175_1551">
<rect width="61" height="63" fill="white"/>
</clipPath>
<clipPath id="clip1_175_1551">
<rect width="60.22" height="62.75" fill="white"/>
</clipPath>
</defs>
</svg>
