<svg width="44" height="85" viewBox="0 0 44 85" fill="none" xmlns="http://www.w3.org/2000/svg">
<g clip-path="url(#clip0_175_1575)">
<g clip-path="url(#clip1_175_1575)">
<path d="M15.99 3.11998C17.98 12 19.53 21.64 16.39 30.45C14.05 37.02 8.83001 42.82 1.80001 44.21L3.73001 48.78C7.44001 46.37 11.21 44.05 15.03 41.82C15.91 41.3 16.79 40.77 17.7 40.29C18.14 40.05 18.87 39.56 19.36 39.83C19.82 40.08 20.11 40.95 20.33 41.37C20.8 42.31 21.25 43.27 21.69 44.24C25.14 51.77 27.74 59.7 29.53 67.78C30.54 72.35 31.28 76.97 31.74 81.63L36.65 80.97C35.43 75.84 34.37 70.67 33.34 65.51C32.38 60.7 31.33 55.88 30.84 50.99C30.43 46.9 29.93 42 31.77 38.16C33.61 34.32 37.48 32.98 41.11 31.8L39.18 27.23C35.36 29.81 30.3 28.18 27.25 25.09C23.34 21.13 22.26 15.02 21.61 9.71998L16.7 10.38C18.35 20.05 18.85 29.86 19.34 39.64C19.48 42.4 23.46 43.1 24.25 40.3C25.14 37.13 26.04 33.96 26.93 30.79L22.75 31.89C23.6 32.78 24.19 33.79 24.54 34.98C25.46 38.06 30.28 36.75 29.36 33.65C28.76 31.63 27.74 29.88 26.28 28.35C24.97 26.97 22.6 27.68 22.1 29.45C21.21 32.62 20.31 35.79 19.42 38.96L24.33 39.62C23.81 29.39 23.24 19.15 21.51 9.03998C21.04 6.29998 16.25 6.89998 16.6 9.69998C17.45 16.54 18.87 24.2 24.21 29.09C28.82 33.31 36.2 35.24 41.69 31.53C43.92 30.03 42.61 26.04 39.76 26.96C36.31 28.08 32.83 29.44 30.15 31.96C27.23 34.7 26.02 38.52 25.64 42.4C25.24 46.49 25.71 50.67 26.28 54.73C26.89 59.03 27.79 63.29 28.64 67.55C29.63 72.48 30.65 77.4 31.81 82.29C32.45 84.97 37 84.47 36.72 81.63C35.8 72.25 33.89 62.99 30.88 54.06C29.4 49.65 27.66 45.31 25.69 41.09C24.77 39.11 23.89 36.88 22 35.62C19.89 34.21 17.44 34.77 15.33 35.87C10.46 38.43 5.79 41.47 1.17001 44.46C-1.25999 46.03 0.320005 49.58 3.10001 49.03C9.62 47.74 14.99 43.2 18.41 37.64C22.39 31.18 23.5 23.45 23.02 15.97C22.71 11.19 21.83 6.45998 20.78 1.78998C20.08 -1.35002 15.25 -0.0200219 15.96 3.11998H15.99Z" fill="#FFC875"/>
</g>
</g>
<defs>
<clipPath id="clip0_175_1575">
<rect width="44" height="85" fill="white"/>
</clipPath>
<clipPath id="clip1_175_1575">
<rect width="43.4" height="84.07" fill="white"/>
</clipPath>
</defs>
</svg>
